<?xml version="1.0" encoding="utf-8"?>
<!-- Generator: Adobe Illustrator 13.0.0, SVG Export Plug-In . SVG Version: 6.00 Build 14948)  -->
<!DOCTYPE svg PUBLIC "-//W3C//DTD SVG 1.0//EN" "http://www.w3.org/TR/2001/REC-SVG-20010904/DTD/svg10.dtd">
<svg version="1.0" id="Layer_1" xmlns="http://www.w3.org/2000/svg" xmlns:xlink="http://www.w3.org/1999/xlink" x="0px" y="0px"
	 width="192.756px" height="192.756px" viewBox="0 0 192.756 192.756" enable-background="new 0 0 192.756 192.756"
	 xml:space="preserve">
<g>
	<polygon fill-rule="evenodd" clip-rule="evenodd" fill="#FFFFFF" points="0,0 192.756,0 192.756,192.756 0,192.756 0,0 	"/>
	<path fill-rule="evenodd" clip-rule="evenodd" d="M93.257,67.997V14.768c6.16,0.142,12.294,1.019,18.264,2.654
		c-0.616,3.647,0.948,7.295,3.98,9.404L97.877,68.968C96.361,68.47,94.821,68.163,93.257,67.997L93.257,67.997z"/>
	<path fill-rule="evenodd" clip-rule="evenodd" d="M88.61,67.997V14.839c-8.386,0.426-16.583,2.487-24.187,6.064l19.709,48.018
		C85.579,68.447,87.07,68.139,88.61,67.997L88.61,67.997z"/>
	<path fill-rule="evenodd" clip-rule="evenodd" d="M80.572,70.258L60.957,22.5c-7.533,3.861-14.332,9.073-20.018,15.351
		l35.297,35.297C77.563,72.034,79.008,71.063,80.572,70.258L80.572,70.258z"/>
	<path fill-rule="evenodd" clip-rule="evenodd" d="M38.496,40.742c-5.188,6.16-9.121,13.29-11.56,20.941l43.872,18.359
		c0.758-1.492,1.706-2.914,2.795-4.193L38.496,40.742L38.496,40.742z"/>
	<path fill-rule="evenodd" clip-rule="evenodd" d="M69.268,83.571L26.012,65.473c-0.995,7.723-0.806,15.541,0.568,23.192H68.25
		C68.391,86.936,68.747,85.229,69.268,83.571L69.268,83.571z"/>
	<path fill-rule="evenodd" clip-rule="evenodd" d="M68.264,92.489H27.66c2.463,6.396,5.662,12.46,9.5,18.122l32.075-13.172
		C68.737,95.829,68.405,94.17,68.264,92.489L68.264,92.489z"/>
	<path fill-rule="evenodd" clip-rule="evenodd" d="M73.664,105.049c-1.138-1.327-2.108-2.771-2.891-4.335l-30.961,12.697
		c4.312,4.288,9.073,8.054,14.19,11.299L73.664,105.049L73.664,105.049z"/>
	<path fill-rule="evenodd" clip-rule="evenodd" d="M98.281,133.435c-0.45-3.673,1.232-7.249,4.358-9.239l-4.903-12.129
		c-7.415,2.298-15.492,0.663-21.415-4.358L57.37,126.659C69.902,133.315,84.281,135.708,98.281,133.435L98.281,133.435z"/>
	<path fill-rule="evenodd" clip-rule="evenodd" d="M101.045,110.701l4.928,12.224c3.813-0.641,7.604,1.089,9.642,4.358
		c2.107-0.994,4.192-2.037,6.253-3.127l-16.369-16.393C104.125,108.924,102.632,109.919,101.045,110.701L101.045,110.701z"/>
	<path fill-rule="evenodd" clip-rule="evenodd" d="M159.95,97.262c-1.373-1.35-2.32-3.08-2.7-4.998h-43.801
		c-0.379,4.713-2.251,9.19-5.283,12.791l17.176,17.175C137.825,115.312,149.433,106.927,159.95,97.262L159.95,97.262z"/>
	<path fill-rule="evenodd" clip-rule="evenodd" d="M135.208,31.196c2.061,2.061,3.979,4.24,5.779,6.538l-35.533,35.534
		c-1.303-1.09-2.7-2.013-4.192-2.795l17.624-42.143c3.269,0.664,6.657-0.474,8.907-2.961
		C130.398,27.122,132.886,29.088,135.208,31.196L135.208,31.196z"/>
	<path fill-rule="evenodd" clip-rule="evenodd" fill="#ED1C24" d="M107.508,126.616c-3.146,0-5.71,2.575-5.71,5.733
		c0,3.156,2.564,5.731,5.71,5.731c3.144,0,5.709-2.575,5.709-5.731C113.217,129.191,110.651,126.616,107.508,126.616
		L107.508,126.616z"/>
	<path fill-rule="evenodd" clip-rule="evenodd" fill="#ED1C24" d="M167.692,83.912c-3.157,0-5.731,2.575-5.731,5.733
		c0,3.157,2.574,5.732,5.731,5.732c3.158,0,5.733-2.575,5.733-5.732C173.426,86.487,170.851,83.912,167.692,83.912L167.692,83.912z"
		/>
	<path fill-rule="evenodd" clip-rule="evenodd" fill="#ED1C24" d="M120.719,13.325c-3.157,0-5.732,2.575-5.732,5.733
		c0,3.157,2.575,5.732,5.732,5.732c3.158,0,5.733-2.575,5.733-5.732C126.452,15.9,123.877,13.325,120.719,13.325L120.719,13.325z"/>
	<polygon fill-rule="evenodd" clip-rule="evenodd" points="49.297,179.403 49.297,164.36 55.742,164.36 64.506,174.736 
		64.506,164.456 69.007,164.456 69.007,179.403 62.137,179.403 53.704,169.549 53.704,179.403 49.297,179.403 	"/>
	<polygon fill-rule="evenodd" clip-rule="evenodd" points="72.785,179.403 72.785,164.242 77.001,164.242 77.001,179.403 
		72.785,179.403 	"/>
	<path fill-rule="evenodd" clip-rule="evenodd" d="M93.885,173.877h4.193v2.014c0,2.085-1.8,3.72-3.885,3.506h-8.718
		c-2.179,0-3.979-1.634-4.216-3.79v-7.58c0-2.251,1.966-4.027,4.216-3.79h8.718c2.014,0,3.695,1.516,3.908,3.506v2.037h-4.216
		c-0.023-1.019-0.876-1.801-1.895-1.753h-4.406c-1.113-0.048-2.061,0.805-2.108,1.896v3.79c0.048,1.112,0.995,1.942,2.108,1.895
		h4.406C92.986,175.654,93.838,174.896,93.885,173.877L93.885,173.877z"/>
	<path fill-rule="evenodd" clip-rule="evenodd" d="M106.571,177.017l-1.035,2.414h-4.482l6.207-15h6.896l6.379,15h-4.827
		l-0.69-2.414H106.571L106.571,177.017z M113.295,173.396h-5.172l2.586-6.379L113.295,173.396L113.295,173.396z"/>
	<polygon fill-rule="evenodd" clip-rule="evenodd" points="128.3,170.737 128.3,179.336 124.083,179.336 124.083,164.175 
		128.938,164.175 136.544,175.996 143.627,164.175 148.412,164.175 148.412,179.336 144.194,179.336 144.194,171.211 
		139.315,179.336 133.819,179.336 128.3,170.737 	"/>
	<path fill-rule="evenodd" clip-rule="evenodd" d="M152.289,179.403V164.06h13.276c2.068,0,3.62,1.724,3.965,3.792v4.139
		c0,2.068-1.896,3.965-3.965,3.965h-8.794v3.448H152.289L152.289,179.403z M156.771,171.818v-3.794h6.725
		c2.587,0,2.587,3.794,0,3.794H156.771L156.771,171.818z"/>
	<path fill-rule="evenodd" clip-rule="evenodd" d="M30.834,173.626v-9.477h-4.216v11.538c0,2.013,1.634,3.624,3.625,3.624h11.821
		c2.014,0,3.624-1.611,3.624-3.624v-11.419h-4.216v9.357c0,1.042-0.853,1.896-1.895,1.896H32.73
		C31.688,175.521,30.834,174.668,30.834,173.626L30.834,173.626z"/>
	<path fill-rule="evenodd" clip-rule="evenodd" d="M154.299,62.471c-2.132-5.046-4.477-9.997-7.036-14.854
		c-1.303-2.297-2.677-4.547-4.121-6.751l-35.036,35.036c1.113,1.351,2.085,2.795,2.866,4.335L154.299,62.471L154.299,62.471z"/>
	<path fill-rule="evenodd" clip-rule="evenodd" d="M155.806,65.987c2.108,5.472,4.027,11.039,5.687,16.677
		c-2.133,1.351-3.648,3.53-4.194,6.017h-43.824c-0.142-1.682-0.45-3.339-0.971-4.951L155.806,65.987L155.806,65.987z"/>
</g>
</svg>
