<?xml version="1.0" encoding="UTF-8" standalone="no"?>
<svg xmlns:svg="http://www.w3.org/2000/svg" xmlns="http://www.w3.org/2000/svg" version="1.0" width="1862" height="826">
<path d="M 388.02,600.61 C 297.33,600.61 252.75,545.38 235.35,487.68 255,581.35 361.09,673.03 695.76,713.96 1012,752.59 1218,655.71 1287.5,610.61 1287.5,610.61 1334.5,589.95 1306.3,621.9 1306.3,621.9 1107.2,806 716.43,807.89 325.66,809.76 15.688,612.51 17.548,413.37 15.688,214.23 325.66,16.959 716.43,18.82 1107.2,20.721 1306.3,204.81 1306.3,204.81 1334.5,236.77 1287.5,216.1 1287.5,216.1 1218,170.99 1012.8,82.206 695.76,112.78 383.91,142.83 282.11,248.78 248.3,320.17 235.26,347.66 229.4,373.55 227.92,399.64 236.35,331.54 278.68,251.22 388.02,251.22 511.89,251.22 549.79,354.27 549.79,425.91 549.79,497.56 511.89,600.61 388.02,600.61 z M 1647.1,531.75 1812.1,531.75 1812.1,591.84 1577.8,591.84 1577.8,260 1647.1,260 1647.1,531.75 z M 1392.5,412.96 1531.2,412.96 1531.2,591.84 1484.9,591.84 1478,550.24 C 1460.4,570.59 1435,600.61 1374.5,600.61 1294.5,600.61 1222,543.31 1222,426.83 1222,336.26 1272.4,250.76 1384.2,251.22 1485.9,251.22 1526.1,317.32 1529.8,363.05 L 1460.4,363.05 C 1460.4,350.1 1436.9,308.54 1387.9,308.54 1338.4,308.54 1292.7,342.73 1292.7,427.77 1292.7,518.35 1342.2,541.93 1389.3,541.93 1404.5,541.93 1455.4,535.89 1469.7,468.91 L 1392.5,468.91 1392.5,412.96 z M 388.02,290.96 C 315.93,290.96 272.49,347.81 272.49,425.91 272.49,504.03 315.93,560.88 388.02,560.88 460.12,560.88 503.58,504.03 503.58,425.91 503.58,347.81 460.12,290.96 388.02,290.96 z M 574.66,379.64 608.33,379.64 608.33,409.64 609.15,409.64 C 617.66,397.48 633.9,373.55 672.43,373.55 728.85,373.55 769.04,421.36 769.04,481.01 769.04,531.7 739.8,597.91 667.57,597.91 639.17,597.91 620.51,584.52 611.19,569.51 L 610.37,569.51 610.37,675.83 574.66,675.83 574.66,379.64 z M 664.88,567.09 C 703.83,567.09 730.24,533.34 730.24,486.66 730.24,459.49 719.25,405.59 664.07,405.59 612.55,405.59 606.87,461.18 606.87,495.67 606.87,552.07 642.17,567.09 664.88,567.09 z M 985.13,525.29 C 983.9,535.44 974.16,565.46 947.37,583.3 937.63,589.8 923.84,597.91 889.77,597.91 830.12,597.91 794.82,552.89 794.82,491.61 794.82,425.88 826.47,373.55 896.64,373.55 957.92,373.55 987.95,422.24 987.95,497.3 L 832.95,497.3 C 832.95,541.53 853.65,567.09 894.63,567.09 928.31,567.09 948.19,541.12 949.41,525.29 L 985.13,525.29 z M 947.28,468.91 C 945.24,436.02 931.45,405.59 888.04,405.59 855.16,405.59 829.19,436.02 829.19,468.91 L 947.28,468.91 z M 1185.3,591.84 1149.6,591.84 1149.6,461.18 C 1149.6,424.28 1139,405.59 1104.1,405.59 1083.8,405.59 1048.1,418.59 1048.1,476.19 L 1048.1,591.84 1012.4,591.84 1012.4,379.64 1046.1,379.64 1046.1,409.64 1046.9,409.64 C 1054.6,398.3 1074.5,373.55 1111,373.55 1143.9,373.55 1185.3,386.93 1185.3,447.39 L 1185.3,591.84 z" fill="#e5e5e5" />
<path d="M 1832.4,544.02 1832.4,547.03 1823,547.03 1823,573.03 1819.2,573.03 1819.2,547.03 1809.8,547.03 1809.8,544.02 1832.4,544.02 z M 1841.2,544.02 1848.4,567.17 1848.6,567.17 1856.1,544.02 1861.7,544.02 1861.7,573.03 1858.4,573.03 1858.4,547.03 1858.2,547.03 1849.7,573.03 1847.2,573.03 1839.2,547.03 1839,547.03 1839,573.03 1835.7,573.03 1835.7,544.02 1841.2,544.02 z" fill="#1496c4" />
<path d="M 387.21,601.44 C 296.52,601.44 251.91,546.23 234.53,488.51 254.16,582.17 360.24,673.89 694.94,714.79 1011.1,753.45 1217.2,656.55 1286.7,611.47 1286.7,611.47 1333.7,590.8 1305.5,622.72 1305.5,622.72 1106.4,806.85 715.61,808.72 324.82,810.61 14.838,613.34 16.728,414.2 14.838,215.05 324.82,17.815 715.61,19.686 1106.4,21.546 1305.5,205.67 1305.5,205.67 1333.7,237.62 1286.7,216.95 1286.7,216.95 1217.2,171.86 1012,83.061 694.94,113.61 383.07,143.66 281.26,249.63 247.45,321.03 234.44,348.49 228.55,374.4 227.1,400.49 235.53,332.39 277.86,252.05 387.21,252.05 511.04,252.05 548.95,355.14 548.95,426.76 548.95,498.39 511.04,601.44 387.21,601.44 z M 1646.3,532.59 C 1701.2,532.59 1756.3,532.59 1811.2,532.59 1811.2,552.61 1811.2,572.64 1811.2,592.67 1733.1,592.67 1655,592.67 1576.9,592.67 1576.9,482.06 1576.9,371.46 1576.9,260.86 1600,260.86 1623.1,260.86 1646.3,260.86 1646.3,351.43 1646.3,442.01 1646.3,532.59 z M 1391.7,413.82 C 1437.9,413.82 1484.1,413.82 1530.3,413.82 1530.3,473.43 1530.3,533.05 1530.3,592.67 1514.9,592.67 1499.5,592.67 1484.1,592.67 1481.8,578.79 1479.5,564.94 1477.2,551.07 1459.6,571.42 1434.2,601.44 1373.7,601.44 1293.7,601.44 1221.1,544.16 1221.1,427.69 1221.1,337.09 1271.5,251.61 1383.4,252.05 1485,252.05 1525.3,318.14 1529,363.91 1505.8,363.91 1482.7,363.91 1459.6,363.91 1459.6,350.97 1436,309.37 1387.1,309.37 1337.6,309.37 1291.9,343.56 1291.9,428.6 1291.9,519.21 1341.3,542.76 1388.4,542.76 1403.7,542.76 1454.5,536.75 1468.9,469.73 1443.1,469.73 1417.4,469.73 1391.7,469.73 1391.7,451.1 1391.7,432.45 1391.7,413.82 z M 387.21,291.81 C 315.09,291.81 271.65,348.66 271.65,426.76 271.65,504.86 315.09,561.71 387.21,561.71 459.3,561.71 502.74,504.86 502.74,426.76 502.74,348.66 459.3,291.81 387.21,291.81 z M 573.81,380.46 C 585.07,380.46 596.28,380.46 607.52,380.46 607.52,390.46 607.52,400.49 607.52,410.49 607.77,410.49 608.03,410.49 608.3,410.49 616.84,398.31 633.05,374.37 671.62,374.37 728,374.37 768.2,422.19 768.2,481.83 768.2,532.56 738.95,598.76 666.75,598.76 638.32,598.76 619.67,585.38 610.34,570.36 610.07,570.36 609.81,570.36 609.53,570.36 609.53,605.79 609.53,641.23 609.53,676.66 597.63,676.66 585.73,676.66 573.81,676.66 573.84,577.92 573.84,479.2 573.81,380.46 z M 664.04,567.91 C 703.01,567.91 729.4,534.16 729.4,487.51 729.4,460.32 718.41,406.44 663.22,406.44 611.71,406.44 606.02,462.04 606.02,496.52 606.02,552.91 641.33,567.91 664.04,567.91 z M 984.28,526.14 C 983.06,536.29 973.31,566.31 946.53,584.15 936.78,590.66 922.99,598.76 888.92,598.76 829.28,598.76 793.97,553.73 793.97,492.44 793.97,426.73 825.62,374.37 895.83,374.37 957.07,374.37 987.11,423.06 987.11,498.13 935.45,498.13 883.79,498.13 832.13,498.13 832.13,542.35 852.83,567.91 893.79,567.91 927.46,567.91 947.34,541.94 948.57,526.14 960.46,526.11 972.38,526.11 984.28,526.14 z M 946.44,469.73 C 944.4,436.87 930.6,406.44 887.2,406.44 854.34,406.44 828.37,436.87 828.37,469.73 867.73,469.73 907.08,469.73 946.44,469.73 z M 1184.4,592.67 C 1172.5,592.67 1160.6,592.67 1148.7,592.67 1148.7,549.12 1148.7,505.56 1148.7,462.04 1148.7,425.1 1138.2,406.44 1103.3,406.44 1083,406.44 1047.3,419.41 1047.3,477.05 1047.3,515.59 1047.3,554.13 1047.3,592.67 1035.4,592.67 1023.5,592.67 1011.6,592.67 1011.6,521.94 1011.6,451.19 1011.6,380.46 1022.8,380.46 1034,380.46 1045.3,380.46 1045.3,390.46 1045.3,400.49 1045.3,410.49 1045.6,410.49 1045.8,410.49 1046.1,410.49 1053.8,399.12 1073.7,374.37 1110.2,374.37 1143.1,374.37 1184.4,387.79 1184.4,448.22 1184.4,496.38 1184.4,544.54 1184.4,592.67 z" fill="#dddddd" />
<path d="M 386.36,598.11 C 295.67,598.11 251.09,542.86 233.69,485.17 253.34,578.83 359.43,670.52 694.1,711.44 1010.3,750.07 1216.4,653.2 1285.9,608.1 1285.9,608.1 1332.8,587.43 1304.7,619.38 1304.7,619.38 1105.5,803.48 714.76,805.38 324,807.24 14.028,610 15.888,410.85 14.028,211.71 324,14.442 714.76,16.342 1105.5,18.203 1304.7,202.33 1304.7,202.33 1332.8,234.25 1285.9,213.58 1285.9,213.58 1216.4,168.51 1011.2,79.688 694.1,110.26 382.25,140.32 280.45,246.26 246.63,317.66 233.6,345.15 227.71,371.03 226.26,397.12 234.68,329.02 277.01,248.71 386.36,248.71 510.23,248.71 548.13,351.77 548.13,423.42 548.13,495.05 510.23,598.11 386.36,598.11 z M 1645.4,529.25 C 1700.4,529.25 1755.4,529.25 1810.4,529.25 1810.4,549.27 1810.4,569.3 1810.4,589.33 1732.3,589.33 1654.2,589.33 1576.1,589.33 1576.1,478.7 1576.1,368.09 1576.1,257.48 1599.2,257.48 1622.3,257.48 1645.4,257.48 1645.4,348.05 1645.4,438.67 1645.4,529.25 z M 1390.9,410.48 C 1437.1,410.48 1483.3,410.48 1529.5,410.48 1529.5,470.09 1529.5,529.7 1529.5,589.33 1514.1,589.33 1498.7,589.33 1483.3,589.33 1481,575.45 1478.7,561.61 1476.3,547.73 1458.8,568.07 1433.4,598.11 1372.8,598.11 1292.9,598.11 1220.3,540.79 1220.3,424.33 1220.3,333.75 1270.7,248.24 1382.5,248.71 1484.2,248.71 1524.4,314.8 1528.1,360.56 1505,360.56 1481.9,360.56 1458.8,360.56 1458.8,347.63 1435.2,306.02 1386.2,306.02 1336.8,306.02 1291,340.21 1291,425.25 1291,515.83 1340.5,539.42 1387.6,539.42 1402.9,539.42 1453.7,533.41 1468,466.39 1442.3,466.39 1416.6,466.39 1390.9,466.39 1390.9,447.73 1390.9,429.1 1390.9,410.48 z M 386.36,288.44 C 314.27,288.44 270.83,345.29 270.83,423.42 270.83,501.51 314.27,558.36 386.36,558.36 458.45,558.36 501.89,501.51 501.89,423.42 501.89,345.29 458.45,288.44 386.36,288.44 z M 573,377.12 C 584.22,377.12 595.45,377.12 606.66,377.12 606.66,387.12 606.66,397.12 606.66,407.15 606.93,407.12 607.22,407.12 607.48,407.15 615.99,394.96 632.23,371.03 670.77,371.03 727.18,371.03 767.35,418.84 767.35,478.49 767.35,529.19 738.12,595.42 665.91,595.42 637.51,595.42 618.82,582.01 609.5,566.99 609.23,566.99 608.97,566.99 608.71,566.99 608.71,602.44 608.71,637.87 608.71,673.31 596.78,673.31 584.89,673.31 573,673.31 573,574.57 573,475.83 573,377.12 z M 663.22,564.57 C 702.17,564.57 728.56,530.82 728.56,484.14 728.56,456.97 717.59,403.07 662.4,403.07 610.86,403.07 605.18,458.67 605.18,493.16 605.18,549.57 640.48,564.57 663.22,564.57 z M 983.43,522.77 C 982.21,532.92 972.47,562.94 945.71,580.81 935.97,587.29 922.18,595.42 888.1,595.42 828.46,595.42 793.15,550.38 793.15,489.1 793.15,423.36 824.78,371.03 894.98,371.03 956.26,371.03 986.29,419.72 986.29,494.79 934.6,494.79 882.94,494.79 831.29,494.79 831.29,539.01 851.98,564.57 892.97,564.57 926.64,564.57 946.53,538.6 947.72,522.77 959.64,522.77 971.53,522.77 983.43,522.77 z M 945.59,466.39 C 943.58,433.5 929.76,403.07 886.35,403.07 853.5,403.07 827.52,433.5 827.52,466.39 866.88,466.39 906.23,466.39 945.59,466.39 z M 1183.6,589.33 C 1171.7,589.33 1159.8,589.33 1147.9,589.33 1147.9,545.77 1147.9,502.22 1147.9,458.67 1147.9,421.76 1137.3,403.07 1102.5,403.07 1082.2,403.07 1046.5,416.08 1046.5,473.68 1046.5,512.22 1046.5,550.79 1046.5,589.33 1034.6,589.33 1022.7,589.33 1010.8,589.33 1010.8,518.57 1010.8,447.85 1010.8,377.12 1022,377.12 1033.2,377.12 1044.4,377.12 1044.4,387.12 1044.4,397.12 1044.4,407.15 1044.7,407.12 1045,407.12 1045.3,407.15 1053,395.78 1072.8,371.03 1109.4,371.03 1142.2,371.03 1183.6,384.41 1183.6,444.87 1183.6,493.01 1183.6,541.17 1183.6,589.33 z" fill="#d6d6d6" />
<path d="M 385.52,603.2 C 294.86,603.2 250.25,547.95 232.87,490.23 252.5,583.93 358.58,675.61 693.25,716.51 1009.5,755.17 1215.5,658.27 1285,613.19 1285,613.19 1332,592.52 1303.8,624.44 1303.8,624.44 1104.7,808.57 713.92,810.44 323.16,812.33 13.178,615.06 15.038,415.92 13.178,216.78 323.16,19.536 713.92,21.407 1104.7,23.298 1303.8,207.39 1303.8,207.39 1332,239.34 1285,218.68 1285,218.68 1215.5,173.58 1010.3,84.783 693.25,115.33 381.41,145.39 279.6,251.35 245.79,322.75 232.78,350.21 226.89,376.13 225.41,402.22 233.84,334.11 276.2,253.8 385.52,253.8 509.38,253.8 547.28,356.86 547.28,428.49 547.28,500.11 509.38,603.2 385.52,603.2 z M 1644.6,534.31 C 1699.6,534.31 1754.6,534.31 1809.6,534.31 1809.6,554.33 1809.6,574.36 1809.6,594.39 1731.5,594.39 1653.3,594.39 1575.2,594.39 1575.2,483.79 1575.2,373.18 1575.2,262.58 1598.4,262.58 1621.5,262.58 1644.6,262.58 1644.6,353.16 1644.6,443.73 1644.6,534.31 z M 1390,415.54 C 1436.2,415.54 1482.4,415.54 1528.7,415.54 1528.7,475.15 1528.7,534.78 1528.7,594.39 1513.2,594.39 1497.8,594.39 1482.4,594.39 1480.1,580.54 1477.8,566.67 1475.5,552.82 1457.9,573.14 1432.5,603.2 1372,603.2 1292,603.2 1219.5,545.88 1219.5,429.42 1219.5,338.84 1269.8,253.33 1381.7,253.8 1483.4,253.8 1523.6,319.89 1527.3,365.63 1504.2,365.63 1481.1,365.63 1457.9,365.63 1457.9,352.69 1434.4,311.09 1385.4,311.09 1335.9,311.09 1290.2,345.31 1290.2,430.32 1290.2,520.93 1339.6,544.48 1386.8,544.48 1402,544.48 1452.9,538.48 1467.2,471.45 1441.5,471.45 1415.7,471.45 1390,471.45 1390,452.83 1390,434.17 1390,415.54 z M 385.52,293.53 C 313.42,293.53 269.98,350.38 269.98,428.49 269.98,506.58 313.42,563.43 385.52,563.43 457.61,563.43 501.07,506.58 501.07,428.49 501.07,350.38 457.61,293.53 385.52,293.53 z M 572.15,382.19 C 583.38,382.19 594.6,382.19 605.81,382.19 605.81,392.22 605.81,402.22 605.81,412.22 606.11,412.22 606.37,412.22 606.64,412.22 615.15,400.06 631.39,376.1 669.93,376.1 726.34,376.1 766.54,423.91 766.54,483.55 766.54,534.28 737.29,600.48 665.06,600.48 636.66,600.48 618,587.1 608.68,572.09 608.41,572.09 608.12,572.09 607.86,572.09 607.86,607.51 607.86,642.96 607.86,678.38 595.96,678.38 584.04,678.38 572.15,678.38 572.15,579.67 572.15,480.93 572.15,382.19 z M 662.37,569.65 C 701.32,569.65 727.74,535.91 727.74,489.23 727.74,462.07 716.74,408.17 661.56,408.17 610.04,408.17 604.36,463.76 604.36,498.25 604.36,554.63 639.67,569.65 662.37,569.65 z M 982.62,527.86 C 981.39,538.01 971.65,568.03 944.86,585.88 935.12,592.38 921.34,600.48 887.26,600.48 827.61,600.48 792.31,555.45 792.31,494.19 792.31,428.46 823.96,376.1 894.13,376.1 955.41,376.1 985.44,424.81 985.44,499.85 933.79,499.85 882.12,499.85 830.44,499.85 830.44,544.07 851.14,569.65 892.12,569.65 925.8,569.65 945.68,543.69 946.9,527.86 958.8,527.86 970.69,527.86 982.62,527.86 z M 944.75,471.45 C 942.74,438.6 928.94,408.17 885.54,408.17 852.65,408.17 826.68,438.6 826.68,471.45 866.06,471.45 905.42,471.45 944.75,471.45 z M 1182.8,594.39 C 1170.9,594.39 1158.9,594.39 1147.1,594.39 1147.1,550.84 1147.1,507.29 1147.1,463.76 1147.1,426.82 1136.5,408.17 1101.6,408.17 1081.3,408.17 1045.6,421.14 1045.6,478.78 1045.6,517.32 1045.6,555.85 1045.6,594.39 1033.7,594.39 1021.8,594.39 1009.9,594.39 1009.9,523.66 1009.9,452.94 1009.9,382.19 1021.2,382.19 1032.4,382.19 1043.6,382.19 1043.6,392.22 1043.6,402.22 1043.6,412.22 1043.9,412.22 1044.1,412.22 1044.4,412.22 1052.1,400.88 1072,376.1 1108.5,376.1 1141.4,376.1 1182.8,389.51 1182.8,449.97 1182.8,498.1 1182.8,546.26 1182.8,594.39 z" fill="#cecece" />
<path d="M 384.7,596.38 C 294.01,596.38 249.4,541.14 232.03,483.44 251.65,577.11 357.73,668.83 692.44,709.72 1008.6,748.35 1214.7,651.48 1284.2,606.38 1284.2,606.38 1331.2,585.71 1303,617.66 1303,617.66 1103.9,801.76 713.1,803.66 322.31,805.52 12.338,608.28 14.228,409.13 12.338,209.99 322.31,12.72 713.1,14.621 1103.9,16.482 1303,200.61 1303,200.61 1331.2,232.53 1284.2,211.86 1284.2,211.86 1214.7,166.79 1009.5,77.997 692.44,108.54 380.56,138.6 278.76,244.57 244.94,315.93 231.94,343.43 226.06,369.31 224.59,395.43 233.02,327.31 275.35,246.99 384.7,246.99 508.54,246.99 546.44,350.04 546.44,421.7 546.44,493.32 508.54,596.38 384.7,596.38 z M 1643.8,527.53 C 1698.7,527.53 1753.8,527.53 1808.7,527.53 1808.7,547.55 1808.7,567.58 1808.7,587.61 1730.6,587.61 1652.5,587.61 1574.4,587.61 1574.4,477.01 1574.4,366.39 1574.4,255.76 1597.5,255.76 1620.6,255.76 1643.8,255.76 1643.8,346.37 1643.8,436.94 1643.8,527.53 z M 1389.2,408.75 C 1435.4,408.75 1481.6,408.75 1527.8,408.75 1527.8,468.37 1527.8,527.99 1527.8,587.61 1512.4,587.61 1497,587.61 1481.6,587.61 1479.3,573.73 1477,559.88 1474.7,546 1457.1,566.35 1431.7,596.38 1371.2,596.38 1291.2,596.38 1218.6,539.07 1218.6,422.61 1218.6,332.02 1269,246.52 1380.9,246.99 1482.5,246.99 1522.7,313.08 1526.4,358.84 1503.3,358.84 1480.2,358.84 1457.1,358.84 1457.1,345.91 1433.5,304.3 1384.6,304.3 1335.1,304.3 1289.4,338.5 1289.4,423.54 1289.4,514.11 1338.8,537.69 1385.9,537.69 1401.2,537.69 1452,531.69 1466.4,464.67 1440.6,464.67 1414.9,464.67 1389.2,464.67 1389.2,446.01 1389.2,427.38 1389.2,408.75 z M 384.7,286.75 C 312.58,286.75 269.14,343.6 269.14,421.7 269.14,499.8 312.58,556.64 384.7,556.64 456.79,556.64 500.23,499.8 500.23,421.7 500.23,343.6 456.79,286.75 384.7,286.75 z M 571.31,375.41 C 582.56,375.41 593.78,375.41 605,375.41 605,385.41 605,395.4 605,405.43 605.27,405.43 605.53,405.43 605.79,405.43 614.33,393.25 630.54,369.31 669.11,369.31 725.49,369.31 765.69,417.12 765.69,476.77 765.69,527.47 736.45,593.7 664.25,593.7 635.82,593.7 617.16,580.28 607.83,565.28 607.57,565.28 607.31,565.28 607.02,565.28 607.02,600.72 607.02,636.15 607.02,671.59 595.12,671.59 583.23,671.59 571.31,671.59 571.31,572.85 571.31,474.12 571.31,375.41 z M 661.53,562.86 C 700.51,562.86 726.88,529.1 726.88,482.45 726.88,455.25 715.9,401.35 660.71,401.35 609.2,401.35 603.52,456.95 603.52,491.43 603.52,547.84 638.82,562.86 661.53,562.86 z M 981.77,521.05 C 980.55,531.2 970.81,561.22 944.02,579.09 934.28,585.57 920.49,593.7 886.41,593.7 826.77,593.7 791.46,548.66 791.46,487.37 791.46,421.64 823.12,369.31 893.32,369.31 954.57,369.31 984.6,418 984.6,493.07 932.94,493.07 881.28,493.07 829.62,493.07 829.62,537.29 850.32,562.86 891.28,562.86 924.95,562.86 944.83,536.88 946.06,521.05 957.95,521.05 969.87,521.05 981.77,521.05 z M 943.93,464.67 C 941.89,431.79 928.1,401.35 884.69,401.35 851.83,401.35 825.86,431.79 825.86,464.67 865.22,464.67 904.57,464.67 943.93,464.67 z M 1181.9,587.61 C 1170,587.61 1158.1,587.61 1146.2,587.61 1146.2,544.05 1146.2,500.5 1146.2,456.95 1146.2,420.04 1135.7,401.35 1100.8,401.35 1080.5,401.35 1044.8,414.36 1044.8,471.96 1044.8,510.5 1044.8,549.07 1044.8,587.61 1032.9,587.61 1021,587.61 1009.1,587.61 1009.1,516.85 1009.1,446.13 1009.1,375.41 1020.3,375.41 1031.5,375.41 1042.8,375.41 1042.8,385.41 1042.8,395.4 1042.8,405.43 1043,405.43 1043.3,405.43 1043.6,405.43 1051.3,394.07 1071.2,369.31 1107.7,369.31 1140.6,369.31 1181.9,382.69 1181.9,443.15 1181.9,491.31 1181.9,539.45 1181.9,587.61 z" fill="#c6c6c6" />
<path d="M 383.85,604.92 C 293.16,604.92 248.58,549.68 231.18,491.95 250.83,585.65 356.89,677.33 691.59,718.23 1007.8,756.89 1213.8,659.99 1283.4,614.92 1283.4,614.92 1330.3,594.24 1302.1,626.2 1302.1,626.2 1103,810.29 712.26,812.16 321.49,814.06 11.518,616.78 13.378,417.64 11.518,218.51 321.49,21.258 712.26,23.128 1103,25.019 1302.1,209.11 1302.1,209.11 1330.3,241.06 1283.4,220.4 1283.4,220.4 1213.8,175.3 1008.7,86.504 691.59,117.05 379.74,147.14 277.94,253.07 244.13,324.47 231.09,351.94 225.2,377.85 223.75,403.94 232.18,335.84 274.51,255.52 383.85,255.52 507.72,255.52 545.62,358.58 545.62,430.21 545.62,501.83 507.72,604.92 383.85,604.92 z M 1642.9,536.03 C 1697.9,536.03 1752.9,536.03 1807.9,536.03 1807.9,556.06 1807.9,576.08 1807.9,596.12 1729.8,596.12 1651.7,596.12 1573.6,596.12 1573.6,485.51 1573.6,374.9 1573.6,264.3 1596.7,264.3 1619.8,264.3 1642.9,264.3 1642.9,354.88 1642.9,445.45 1642.9,536.03 z M 1388.3,417.26 C 1434.6,417.26 1480.8,417.26 1527,417.26 1527,476.89 1527,536.5 1527,596.12 1511.6,596.12 1496.2,596.12 1480.8,596.12 1478.5,582.26 1476.2,568.39 1473.8,554.54 1456.3,574.86 1430.9,604.92 1370.3,604.92 1290.4,604.92 1217.8,547.61 1217.8,431.14 1217.8,340.56 1268.2,255.07 1380,255.52 1481.7,255.52 1521.9,321.62 1525.6,367.36 1502.5,367.36 1479.4,367.36 1456.3,367.36 1456.3,354.41 1432.7,312.81 1383.7,312.81 1334.3,312.81 1288.5,347.04 1288.5,432.05 1288.5,522.65 1338,546.2 1385.1,546.2 1400.4,546.2 1451.2,540.2 1465.5,473.17 1439.8,473.17 1414.1,473.17 1388.3,473.17 1388.3,454.55 1388.3,435.89 1388.3,417.26 z M 383.85,295.26 C 311.76,295.26 268.33,352.1 268.33,430.21 268.33,508.31 311.76,565.16 383.85,565.16 455.95,565.16 499.38,508.31 499.38,430.21 499.38,352.1 455.95,295.26 383.85,295.26 z M 570.49,383.92 C 581.71,383.92 592.94,383.92 604.16,383.92 604.16,393.95 604.16,403.94 604.16,413.94 604.42,413.94 604.68,413.94 604.98,413.94 613.49,401.79 629.73,377.85 668.27,377.85 724.68,377.85 764.85,425.63 764.85,485.27 764.85,536 735.6,602.2 663.4,602.2 635,602.2 616.31,588.83 606.99,573.82 606.72,573.82 606.46,573.82 606.17,573.82 606.2,609.23 606.2,644.68 606.17,680.1 594.27,680.1 582.38,680.1 570.49,680.1 570.49,581.39 570.49,482.66 570.49,383.92 z M 660.71,571.37 C 699.66,571.37 726.05,537.63 726.05,490.97 726.05,463.79 715.08,409.89 659.9,409.89 608.35,409.89 602.67,465.48 602.67,499.97 602.67,556.38 637.98,571.37 660.71,571.37 z M 980.93,529.58 C 979.7,539.73 969.96,569.76 943.2,587.6 933.46,594.1 919.68,602.2 885.6,602.2 825.95,602.2 790.65,557.17 790.65,495.92 790.65,430.18 822.27,377.85 892.47,377.85 953.75,377.85 983.78,426.54 983.78,501.6 932.1,501.57 880.43,501.57 828.78,501.6 828.78,545.82 849.48,571.37 890.46,571.37 924.14,571.37 944.02,545.42 945.21,529.58 957.13,529.58 969.03,529.58 980.93,529.58 z M 943.08,473.17 C 941.07,440.33 927.25,409.89 883.85,409.89 850.99,409.89 825.02,440.33 825.02,473.17 864.37,473.17 903.73,473.17 943.08,473.17 z M 1181.1,596.12 C 1169.2,596.12 1157.3,596.12 1145.4,596.12 1145.4,552.56 1145.4,509.04 1145.4,465.48 1145.4,428.55 1134.8,409.89 1100,409.89 1079.7,409.89 1043.9,422.86 1043.9,480.5 1043.9,519.04 1043.9,557.58 1043.9,596.12 1032,596.12 1020.2,596.12 1008.3,596.12 1008.3,525.4 1008.3,454.67 1008.3,383.92 1019.5,383.92 1030.7,383.92 1041.9,383.92 1041.9,393.95 1041.9,403.94 1041.9,413.94 1042.2,413.94 1042.5,413.94 1042.7,413.94 1050.4,402.6 1070.3,377.85 1106.9,377.85 1139.7,377.85 1181.1,391.23 1181.1,451.69 1181.1,499.82 1181.1,547.98 1181.1,596.12 z" fill="#bfbfbf" />
<path d="M 383.01,594.66 C 292.35,594.66 247.74,539.45 230.37,481.72 249.99,575.39 356.07,667.1 690.74,708 1007,746.63 1213,649.76 1282.5,604.66 1282.5,604.66 1329.5,584.02 1301.3,615.95 1301.3,615.95 1102.2,800.06 711.41,801.94 320.65,803.8 10.668,606.55 12.538,407.41 10.668,208.28 320.65,10.999 711.41,12.899 1102.2,14.76 1301.3,198.88 1301.3,198.88 1329.5,230.81 1282.5,210.14 1282.5,210.14 1213,165.07 1007.8,76.275 690.74,106.82 378.9,136.88 277.09,242.85 243.28,314.24 230.28,341.71 224.38,367.62 222.9,393.71 231.33,325.59 273.69,245.26 383.01,245.26 506.87,245.26 544.78,348.35 544.78,419.98 544.78,491.6 506.87,594.66 383.01,594.66 z M 1642.1,525.8 C 1697.1,525.8 1752.1,525.8 1807.1,525.8 1807.1,545.83 1807.1,565.86 1807.1,585.89 1729,585.89 1650.8,585.89 1572.7,585.89 1572.7,475.28 1572.7,364.67 1572.7,254.07 1595.9,254.07 1619,254.07 1642.1,254.07 1642.1,344.65 1642.1,435.22 1642.1,525.8 z M 1387.5,407.03 C 1433.7,407.03 1479.9,407.03 1526.2,407.03 1526.2,466.66 1526.2,526.27 1526.2,585.89 1510.7,585.89 1495.3,585.89 1479.9,585.89 1477.6,572 1475.3,558.16 1473,544.28 1455.4,564.63 1430,594.66 1369.5,594.66 1289.5,594.66 1217,537.35 1217,420.88 1217,330.3 1267.3,244.81 1379.2,245.26 1480.9,245.26 1521.1,311.36 1524.8,357.13 1501.7,357.13 1478.6,357.13 1455.4,357.13 1455.4,344.18 1431.9,302.58 1382.9,302.58 1333.4,302.58 1287.7,336.78 1287.7,421.82 1287.7,512.39 1337.1,535.97 1384.3,535.97 1399.5,535.97 1450.4,529.97 1464.7,462.96 1439,462.96 1413.2,462.96 1387.5,462.96 1387.5,444.32 1387.5,425.66 1387.5,407.03 z M 383.01,285.04 C 310.92,285.04 267.48,341.88 267.48,419.98 267.48,498.08 310.92,554.93 383.01,554.93 455.1,554.93 498.57,498.08 498.57,419.98 498.57,341.88 455.1,285.04 383.01,285.04 z M 569.64,373.69 C 580.87,373.69 592.09,373.69 603.32,373.69 603.32,383.69 603.32,393.71 603.32,403.71 603.61,403.71 603.86,403.71 604.13,403.71 612.64,391.53 628.88,367.59 667.42,367.59 723.83,367.59 764.03,415.4 764.03,475.05 764.03,525.77 734.79,591.98 662.55,591.98 634.15,591.98 615.5,578.6 606.17,563.59 605.9,563.56 605.62,563.56 605.36,563.59 605.36,599 605.36,634.46 605.36,669.87 593.46,669.87 581.53,669.87 569.64,669.87 569.64,571.14 569.64,472.4 569.64,373.69 z M 659.87,561.14 C 698.81,561.14 725.22,527.38 725.22,480.74 725.22,453.53 714.24,399.66 659.05,399.66 607.54,399.66 601.85,455.22 601.85,489.71 601.85,546.12 637.16,561.14 659.87,561.14 z M 980.11,519.36 C 978.89,529.48 969.14,559.51 942.36,577.37 932.61,583.85 918.83,591.98 884.75,591.98 825.11,591.98 789.8,546.94 789.8,485.66 789.8,419.95 821.45,367.59 891.63,367.59 952.9,367.59 982.94,416.28 982.94,491.34 931.28,491.34 879.62,491.34 827.93,491.34 827.93,535.57 848.63,561.14 889.62,561.14 923.29,561.14 943.17,535.16 944.4,519.36 956.29,519.33 968.19,519.33 980.11,519.36 z M 942.24,462.96 C 940.23,430.1 926.43,399.66 883.03,399.66 850.14,399.66 824.17,430.1 824.17,462.96 863.56,462.96 902.91,462.96 942.24,462.96 z M 1180.3,585.89 C 1168.4,585.89 1156.4,585.89 1144.6,585.89 1144.6,542.33 1144.6,498.78 1144.6,455.22 1144.6,418.32 1134,399.66 1099.1,399.66 1078.8,399.66 1043.1,412.63 1043.1,470.24 1043.1,508.81 1043.1,547.35 1043.1,585.89 1031.2,585.89 1019.3,585.89 1007.4,585.89 1007.4,515.17 1007.4,444.41 1007.4,373.69 1018.6,373.69 1029.9,373.69 1041.1,373.69 1041.1,383.69 1041.1,393.71 1041.1,403.71 1041.4,403.71 1041.6,403.71 1041.9,403.71 1049.6,392.35 1069.5,367.59 1106,367.59 1138.9,367.59 1180.3,381 1180.3,441.43 1180.3,489.59 1180.3,537.72 1180.3,585.89 z" fill="#bababa" />
<path d="M 382.19,606.64 C 291.5,606.64 246.89,551.4 229.52,493.7 249.14,587.37 355.23,679.05 689.93,719.96 1006.1,758.61 1212.2,661.74 1281.7,616.64 1281.7,616.64 1328.6,595.98 1300.5,627.93 1300.5,627.93 1101.3,812.02 710.6,813.89 319.8,815.78 9.8284,618.5 11.718,419.36 9.8284,220.23 319.8,22.989 710.6,24.85 1101.3,26.741 1300.5,210.83 1300.5,210.83 1328.6,242.79 1281.7,222.12 1281.7,222.12 1212.2,177.02 1007,88.226 689.93,118.8 378.05,148.86 276.25,254.8 242.44,326.19 229.43,353.69 223.55,379.58 222.09,405.66 230.51,337.57 272.84,257.25 382.19,257.25 506.03,257.25 543.93,360.3 543.93,431.93 543.93,503.58 506.03,606.64 382.19,606.64 z M 1641.2,537.78 C 1696.2,537.78 1751.2,537.78 1806.2,537.78 1806.2,557.81 1806.2,577.84 1806.2,597.87 1728.1,597.84 1650,597.84 1571.9,597.87 1571.9,487.23 1571.9,376.63 1571.9,266.02 1595,266.02 1618.1,266.02 1641.2,266.02 1641.2,356.6 1641.2,447.17 1641.2,537.78 z M 1386.7,418.98 C 1432.9,418.98 1479.1,418.98 1525.3,418.98 1525.3,478.61 1525.3,538.22 1525.3,597.87 1509.9,597.84 1494.5,597.84 1479.1,597.87 1476.8,584 1474.5,570.11 1472.2,556.26 1454.6,576.58 1429.2,606.64 1368.6,606.64 1288.7,606.64 1216.1,549.33 1216.1,432.86 1216.1,342.28 1266.5,256.79 1378.4,257.25 1480,257.25 1520.2,323.34 1523.9,369.08 1500.8,369.08 1477.7,369.08 1454.6,369.08 1454.6,356.13 1431,314.56 1382.1,314.56 1332.6,314.56 1286.8,348.76 1286.8,433.8 1286.8,524.37 1336.3,547.92 1383.4,547.92 1398.7,547.92 1449.5,541.92 1463.9,474.94 1438.1,474.94 1412.4,474.94 1386.7,474.94 1386.7,456.28 1386.7,437.64 1386.7,418.98 z M 382.19,296.99 C 310.07,296.99 266.64,353.84 266.64,431.93 266.64,510.03 310.07,566.88 382.19,566.88 454.29,566.88 497.72,510.03 497.72,431.93 497.72,353.84 454.29,296.99 382.19,296.99 z M 568.8,385.67 C 580.05,385.67 591.28,385.67 602.5,385.67 602.5,395.67 602.5,405.66 602.5,415.66 602.76,415.66 603.02,415.66 603.29,415.66 611.82,403.51 628.03,379.58 666.6,379.58 722.98,379.58 763.18,427.35 763.18,487 763.18,537.72 733.95,603.93 661.74,603.93 633.31,603.93 614.65,590.55 605.33,575.54 605.06,575.54 604.77,575.54 604.51,575.54 604.51,610.95 604.51,646.41 604.51,681.85 592.61,681.83 580.72,681.83 568.8,681.85 568.8,583.12 568.8,484.38 568.8,385.67 z M 659.02,573.12 C 698,573.12 724.39,539.36 724.39,492.69 724.39,465.51 713.39,411.61 658.21,411.61 606.69,411.61 601.01,467.2 601.01,501.69 601.01,558.1 636.31,573.12 659.02,573.12 z M 979.26,531.31 C 978.04,541.46 968.3,571.49 941.51,589.33 931.77,595.83 917.99,603.93 883.91,603.93 824.26,603.93 788.96,558.89 788.96,497.64 788.96,431.9 820.61,379.58 890.81,379.58 952.06,379.58 982.09,428.26 982.09,503.32 930.43,503.32 878.77,503.32 827.12,503.32 827.12,547.55 847.81,573.12 888.77,573.12 922.44,573.12 942.33,547.14 943.55,531.31 955.44,531.31 967.37,531.31 979.26,531.31 z M 941.42,474.91 C 939.38,442.05 925.59,411.61 882.18,411.61 849.33,411.61 823.36,442.05 823.36,474.91 862.71,474.91 902.07,474.91 941.42,474.91 z M 1179.4,597.87 C 1167.5,597.84 1155.6,597.84 1143.7,597.87 1143.7,554.31 1143.7,510.76 1143.7,467.2 1143.7,430.27 1133.2,411.61 1098.3,411.61 1078,411.61 1042.3,424.61 1042.3,482.22 1042.3,520.76 1042.3,559.3 1042.3,597.87 1030.4,597.84 1018.5,597.84 1006.6,597.87 1006.6,527.12 1006.6,456.39 1006.6,385.67 1017.8,385.67 1029,385.67 1040.2,385.67 1040.2,395.67 1040.2,405.66 1040.2,415.66 1040.5,415.66 1040.8,415.66 1041.1,415.66 1048.8,404.33 1068.7,379.58 1105.2,379.58 1138.1,379.58 1179.4,392.95 1179.4,453.41 1179.4,501.54 1179.4,549.71 1179.4,597.87 z" fill="#b2b2b2" />
<path d="M 381.35,592.94 C 290.66,592.94 246.08,537.72 228.67,480 248.33,573.67 354.38,665.38 689.08,706.29 1005.3,744.94 1211.3,648.04 1280.9,602.97 1280.9,602.97 1327.8,582.3 1299.6,614.23 1299.6,614.23 1100.5,798.34 709.75,800.21 318.99,802.1 9.0084,604.83 10.868,405.7 9.0084,206.56 318.99,9.3168 709.75,11.178 1100.5,13.049 1299.6,197.17 1299.6,197.17 1327.8,229.08 1280.9,208.42 1280.9,208.42 1211.3,163.35 1006.2,74.554 689.08,105.1 377.24,135.16 275.43,241.12 241.62,312.52 228.58,339.98 222.7,365.91 221.24,392 229.67,323.86 272,243.55 381.35,243.55 505.21,243.55 543.12,346.63 543.12,418.26 543.12,489.89 505.21,592.94 381.35,592.94 z M 1640.4,524.08 C 1695.4,524.08 1750.4,524.08 1805.4,524.08 1805.4,544.11 1805.4,564.13 1805.4,584.16 1727.3,584.16 1649.2,584.16 1571.1,584.16 1571.1,473.56 1571.1,362.96 1571.1,252.35 1594.2,252.35 1617.3,252.35 1640.4,252.35 1640.4,342.93 1640.4,433.5 1640.4,524.08 z M 1385.8,405.31 C 1432.1,405.31 1478.3,405.31 1524.5,405.31 1524.5,464.94 1524.5,524.55 1524.5,584.16 1509.1,584.16 1493.7,584.16 1478.3,584.16 1476,570.29 1473.6,556.44 1471.3,542.56 1453.8,562.91 1428.4,592.94 1367.8,592.94 1287.8,592.94 1215.3,535.66 1215.3,419.19 1215.3,328.59 1265.7,243.11 1377.5,243.55 1479.2,243.55 1519.4,309.64 1523.1,355.41 1500,355.41 1476.9,355.41 1453.8,355.41 1453.8,342.46 1430.2,300.86 1381.2,300.86 1331.8,300.86 1286,335.06 1286,420.1 1286,510.67 1335.4,534.25 1382.6,534.25 1397.9,534.25 1448.7,528.25 1463,461.23 1437.3,461.23 1411.6,461.23 1385.8,461.23 1385.8,442.6 1385.8,423.94 1385.8,405.31 z M 381.35,283.32 C 309.25,283.32 265.82,340.16 265.82,418.26 265.82,496.36 309.25,553.21 381.35,553.21 453.44,553.21 496.87,496.36 496.87,418.26 496.87,340.16 453.44,283.32 381.35,283.32 z M 567.98,371.97 C 579.21,371.97 590.43,371.97 601.66,371.97 601.66,381.97 601.66,392 601.66,401.99 601.91,401.99 602.17,401.99 602.47,401.99 610.98,389.81 627.22,365.88 665.76,365.88 722.17,365.88 762.34,413.68 762.34,473.32 762.34,524.05 733.1,590.25 660.89,590.25 632.49,590.25 613.81,576.88 604.48,561.87 604.21,561.87 603.95,561.87 603.67,561.87 603.7,597.29 603.7,632.73 603.67,668.16 591.76,668.16 579.87,668.16 567.98,668.16 567.98,569.42 567.98,470.71 567.98,371.97 z M 658.21,559.42 C 697.15,559.42 723.54,525.65 723.54,479.02 723.54,451.81 712.58,397.94 657.39,397.94 605.84,397.94 600.16,453.53 600.16,488.02 600.16,544.4 635.47,559.42 658.21,559.42 z M 978.42,517.64 C 977.19,527.75 967.45,557.79 940.7,575.66 930.95,582.12 917.17,590.25 883.09,590.25 823.44,590.25 788.14,545.22 788.14,483.94 788.14,418.23 819.77,365.88 889.97,365.88 951.24,365.88 981.27,414.56 981.27,489.62 929.62,489.62 877.92,489.62 826.27,489.62 826.27,533.85 846.97,559.42 887.96,559.42 921.63,559.42 941.51,533.44 942.71,517.64 954.63,517.61 966.53,517.61 978.42,517.64 z M 940.58,461.23 C 938.57,428.38 924.74,397.94 881.34,397.94 848.48,397.94 822.51,428.38 822.51,461.23 861.86,461.23 901.22,461.23 940.58,461.23 z M 1178.6,584.16 C 1166.7,584.16 1154.8,584.16 1142.9,584.16 1142.9,540.61 1142.9,497.06 1142.9,453.53 1142.9,416.59 1132.3,397.94 1097.4,397.94 1077.2,397.94 1041.4,410.91 1041.4,468.52 1041.4,507.09 1041.4,545.63 1041.4,584.16 1029.6,584.16 1017.6,584.16 1005.8,584.16 1005.8,513.45 1005.8,442.69 1005.8,371.97 1017,371.97 1028.2,371.97 1039.4,371.97 1039.4,381.97 1039.4,392 1039.4,401.99 1039.7,401.99 1039.9,401.99 1040.2,401.99 1047.9,390.62 1067.8,365.88 1104.3,365.88 1137.2,365.88 1178.6,379.28 1178.6,439.72 1178.6,487.87 1178.6,536 1178.6,584.16 z" fill="#aaaaaa" />
<path d="M 380.5,608.31 C 289.84,608.31 245.23,553.06 227.86,495.36 247.48,589.03 353.56,680.72 688.24,721.65 1004.4,760.27 1210.5,663.4 1280,618.31 1280,618.31 1327,597.64 1298.8,629.59 1298.8,629.59 1099.7,813.69 708.9,815.58 318.14,817.45 8.1684,620.2 10.038,421.06 8.1684,221.92 318.14,24.651 708.9,26.542 1099.7,28.413 1298.8,212.51 1298.8,212.51 1327,244.46 1280,223.78 1280,223.78 1210.5,178.68 1005.3,89.888 688.24,120.47 376.39,150.52 274.59,256.47 240.77,327.85 227.77,355.35 221.89,381.24 220.39,407.33 228.82,339.23 271.18,258.92 380.5,258.92 504.37,258.92 542.27,361.97 542.27,433.59 542.27,505.26 504.37,608.31 380.5,608.31 z M 1639.6,539.45 C 1694.6,539.45 1749.6,539.45 1804.6,539.45 1804.6,559.48 1804.6,579.5 1804.6,599.53 1726.5,599.53 1648.3,599.53 1570.2,599.53 1570.2,488.9 1570.2,378.29 1570.2,267.68 1593.4,267.68 1616.5,267.68 1639.6,267.68 1639.6,358.26 1639.6,448.87 1639.6,539.45 z M 1385,420.67 C 1431.2,420.65 1477.4,420.65 1523.7,420.67 1523.7,480.27 1523.7,539.91 1523.7,599.53 1508.2,599.53 1492.8,599.53 1477.4,599.53 1475.1,585.66 1472.8,571.78 1470.5,557.92 1452.9,578.25 1427.5,608.31 1367,608.31 1287,608.31 1214.5,550.99 1214.5,434.53 1214.5,343.94 1264.8,258.45 1376.7,258.92 1478.3,258.92 1518.5,325 1522.2,370.77 1499.2,370.77 1476,370.77 1452.9,370.77 1452.9,357.83 1429.4,316.22 1380.4,316.22 1330.9,316.22 1285.2,350.42 1285.2,435.46 1285.2,526.03 1334.6,549.62 1381.8,549.62 1397,549.62 1447.9,543.59 1462.2,476.6 1436.5,476.6 1410.7,476.6 1385,476.6 1385,457.94 1385,439.31 1385,420.67 z M 380.5,298.65 C 308.41,298.65 264.97,355.5 264.97,433.59 264.97,511.72 308.41,568.57 380.5,568.57 452.59,568.57 496.06,511.72 496.06,433.59 496.06,355.5 452.59,298.65 380.5,298.65 z M 567.14,387.33 C 578.36,387.33 589.59,387.33 600.81,387.33 600.81,397.33 600.81,407.33 600.81,417.36 601.1,417.33 601.36,417.33 601.63,417.36 610.13,405.17 626.37,381.24 664.91,381.24 721.32,381.24 761.52,429.04 761.52,488.7 761.52,539.39 732.29,605.62 660.05,605.62 631.65,605.62 612.99,592.21 603.67,577.2 603.4,577.2 603.11,577.2 602.85,577.2 602.85,612.65 602.85,648.07 602.85,683.52 590.95,683.52 579.03,683.52 567.14,683.52 567.14,584.78 567.14,486.04 567.14,387.33 z M 657.36,574.78 C 696.31,574.78 722.73,541.02 722.73,494.35 722.73,467.17 711.73,413.27 656.54,413.27 605.03,413.27 599.35,468.87 599.35,503.36 599.35,559.77 634.65,574.78 657.36,574.78 z M 977.6,532.98 C 976.38,543.12 966.64,573.15 939.85,591.02 930.11,597.49 916.32,605.62 882.24,605.62 822.6,605.62 787.29,560.58 787.29,499.31 787.29,433.56 818.96,381.24 889.12,381.24 950.4,381.24 980.43,429.92 980.43,504.99 928.77,504.99 877.11,504.99 825.42,504.99 825.42,549.22 846.12,574.78 887.11,574.78 920.78,574.78 940.67,548.8 941.89,532.98 953.78,532.98 965.68,532.98 977.6,532.98 z M 939.73,476.6 C 937.72,443.71 923.93,413.27 880.52,413.27 847.63,413.27 821.66,443.71 821.66,476.6 861.05,476.6 900.4,476.6 939.73,476.6 z M 1177.8,599.53 C 1165.9,599.53 1153.9,599.53 1142,599.53 1142,555.97 1142,512.42 1142,468.87 1142,431.96 1131.5,413.27 1096.6,413.27 1076.3,413.27 1040.6,426.28 1040.6,483.88 1040.6,522.42 1040.6,560.96 1040.6,599.53 1028.7,599.53 1016.8,599.53 1004.9,599.53 1004.9,528.78 1004.9,458.05 1004.9,387.33 1016.1,387.33 1027.4,387.33 1038.6,387.33 1038.6,397.33 1038.6,407.33 1038.6,417.36 1038.8,417.33 1039.1,417.33 1039.4,417.36 1047.1,405.99 1067,381.24 1103.5,381.24 1136.4,381.24 1177.8,394.61 1177.8,455.07 1177.8,503.21 1177.8,551.37 1177.8,599.53 z" fill="#a3a3a3" />
<path d="M 379.69,591.25 C 288.99,591.25 244.39,536 227.01,478.28 246.63,571.96 352.72,663.66 687.42,704.57 1003.6,743.22 1209.7,646.32 1279.2,601.25 1279.2,601.25 1326.1,580.58 1298,612.5 1298,612.5 1098.8,796.63 708.09,798.49 317.29,800.39 7.3184,603.11 9.2184,403.98 7.3184,204.83 317.29,7.5958 708.09,9.4558 1098.8,11.357 1298,195.45 1298,195.45 1326.1,227.4 1279.2,206.72 1279.2,206.72 1209.7,161.63 1004.5,72.832 687.42,103.39 375.55,133.44 273.75,239.41 239.93,310.8 226.92,338.26 221.04,364.18 219.58,390.28 228.01,322.17 270.34,241.86 379.69,241.86 503.52,241.86 541.42,344.91 541.42,416.54 541.42,488.17 503.52,591.25 379.69,591.25 z M 1638.7,522.36 C 1693.7,522.36 1748.7,522.36 1803.7,522.36 1803.7,542.39 1803.7,562.42 1803.7,582.44 1725.6,582.44 1647.5,582.44 1569.4,582.44 1569.4,471.84 1569.4,361.24 1569.4,250.64 1592.5,250.64 1615.6,250.64 1638.7,250.64 1638.7,341.21 1638.7,431.79 1638.7,522.36 z M 1384.2,403.6 C 1430.4,403.6 1476.6,403.6 1522.8,403.6 1522.8,463.21 1522.8,522.83 1522.8,582.44 1507.4,582.44 1492,582.44 1476.6,582.44 1474.3,568.6 1472,554.72 1469.7,540.85 1452.1,561.19 1426.7,591.25 1366.1,591.25 1286.2,591.25 1213.6,533.93 1213.6,417.47 1213.6,326.87 1264,241.39 1375.8,241.86 1477.5,241.86 1517.7,307.91 1521.4,353.69 1498.3,353.69 1475.2,353.69 1452.1,353.69 1452.1,340.74 1428.5,299.14 1379.5,299.14 1330.1,299.14 1284.3,333.37 1284.3,418.38 1284.3,508.98 1333.8,532.54 1380.9,532.54 1396.2,532.54 1447,526.53 1461.4,459.51 1435.6,459.51 1409.9,459.51 1384.2,459.51 1384.2,440.88 1384.2,422.23 1384.2,403.6 z M 379.69,281.59 C 307.56,281.59 264.13,338.44 264.13,416.54 264.13,494.64 307.56,551.49 379.69,551.49 451.78,551.49 495.21,494.64 495.21,416.54 495.21,338.44 451.78,281.59 379.69,281.59 z M 566.29,370.24 C 577.54,370.24 588.77,370.24 599.99,370.24 599.99,380.25 599.99,390.28 599.99,400.28 600.25,400.28 600.51,400.28 600.78,400.28 609.32,388.12 625.53,364.15 664.1,364.15 720.48,364.15 760.68,411.96 760.68,471.61 760.68,522.33 731.44,588.54 659.23,588.54 630.8,588.54 612.14,575.16 602.82,560.14 602.55,560.14 602.26,560.14 602,560.14 602,595.57 602,631.01 602,666.44 590.1,666.44 578.21,666.44 566.29,666.44 566.29,567.7 566.29,468.99 566.29,370.24 z M 656.51,557.7 C 695.46,557.7 721.88,523.96 721.88,477.29 721.88,450.1 710.88,396.22 655.7,396.22 604.18,396.22 598.5,451.81 598.5,486.3 598.5,542.68 633.81,557.7 656.51,557.7 z M 976.76,515.92 C 975.53,526.06 965.79,556.09 939,573.94 929.26,580.43 915.48,588.54 881.4,588.54 821.75,588.54 786.45,543.5 786.45,482.25 786.45,416.51 818.11,364.15 888.3,364.15 949.56,364.15 979.58,412.86 979.58,487.9 927.93,487.9 876.26,487.9 824.61,487.9 824.61,532.13 845.28,557.7 886.26,557.7 919.94,557.7 939.82,531.75 941.04,515.92 952.93,515.92 964.87,515.92 976.76,515.92 z M 938.91,459.51 C 936.87,426.66 923.08,396.22 879.68,396.22 846.82,396.22 820.85,426.66 820.85,459.51 860.2,459.51 899.56,459.51 938.91,459.51 z M 1176.9,582.44 C 1165,582.44 1153.1,582.44 1141.2,582.44 1141.2,538.89 1141.2,495.36 1141.2,451.81 1141.2,414.87 1130.7,396.22 1095.8,396.22 1075.5,396.22 1039.8,409.19 1039.8,466.83 1039.8,505.37 1039.8,543.9 1039.8,582.44 1027.9,582.44 1016,582.44 1004.1,582.44 1004.1,511.72 1004.1,440.96 1004.1,370.24 1015.3,370.24 1026.5,370.24 1037.7,370.24 1037.7,380.25 1037.7,390.28 1037.7,400.28 1038,400.28 1038.3,400.28 1038.6,400.28 1046.3,388.93 1066.2,364.15 1102.7,364.15 1135.5,364.15 1176.9,377.56 1176.9,438 1176.9,486.16 1176.9,534.31 1176.9,582.44 z" fill="#9b9b9b" />
<path d="M 378.84,610.03 C 288.15,610.03 243.57,554.78 226.17,497.09 245.82,590.76 351.9,682.45 686.57,723.38 1002.8,762 1208.8,665.12 1278.4,620.03 1278.4,620.03 1325.3,599.36 1297.1,631.31 1297.1,631.31 1098,815.41 707.24,817.3 316.48,819.17 6.4984,621.92 8.3684,422.78 6.4984,223.64 316.48,26.373 707.24,28.264 1098,30.134 1297.1,214.26 1297.1,214.26 1325.3,246.18 1278.4,225.51 1278.4,225.51 1208.8,180.44 1003.7,91.64 686.57,122.19 374.73,152.25 272.92,258.19 239.11,329.59 226.08,357.07 220.23,382.96 218.73,409.08 227.16,340.95 269.49,260.64 378.84,260.64 502.71,260.64 540.61,363.69 540.61,435.34 540.61,506.98 502.71,610.03 378.84,610.03 z M 1637.9,541.17 C 1692.9,541.17 1747.9,541.17 1802.9,541.17 1802.9,561.2 1802.9,581.23 1802.9,601.25 1724.8,601.25 1646.7,601.25 1568.6,601.25 1568.6,490.65 1568.6,380.05 1568.6,269.41 1591.7,269.41 1614.8,269.41 1637.9,269.41 1637.9,359.99 1637.9,450.6 1637.9,541.17 z M 1383.3,422.41 C 1429.5,422.41 1475.7,422.41 1522,422.41 1522,482.02 1522,541.64 1522,601.25 1506.6,601.25 1491.2,601.25 1475.7,601.25 1473.5,587.38 1471.2,573.53 1468.8,559.66 1451.3,580 1425.8,610.03 1365.3,610.03 1285.4,610.03 1212.8,552.71 1212.8,436.25 1212.8,345.68 1263.2,260.17 1375,260.64 1476.7,260.64 1516.9,326.72 1520.6,372.49 1497.5,372.49 1474.4,372.49 1451.3,372.49 1451.3,359.55 1427.7,317.95 1378.7,317.95 1329.3,317.95 1283.5,352.14 1283.5,437.18 1283.5,527.75 1333,551.35 1380.1,551.35 1395.3,551.35 1446.2,545.34 1460.5,478.32 1434.8,478.32 1409,478.32 1383.3,478.32 1383.3,459.66 1383.3,441.03 1383.3,422.41 z M 378.84,300.37 C 306.75,300.37 263.31,357.22 263.31,435.34 263.31,513.45 306.75,570.29 378.84,570.29 450.93,570.29 494.37,513.45 494.37,435.34 494.37,357.22 450.93,300.37 378.84,300.37 z M 565.47,389.05 C 576.7,389.05 587.92,389.05 599.15,389.05 599.15,399.05 599.15,409.05 599.15,419.08 599.41,419.08 599.7,419.08 599.96,419.08 608.47,406.89 624.71,382.96 663.25,382.96 719.66,382.96 759.83,430.77 759.83,490.42 759.83,541.11 730.6,607.35 658.38,607.35 629.98,607.35 611.3,593.94 601.97,578.92 601.71,578.92 601.45,578.92 601.19,578.92 601.19,614.38 601.19,649.79 601.19,685.24 589.26,685.24 577.37,685.24 565.47,685.24 565.47,586.5 565.47,487.76 565.47,389.05 z M 655.7,576.5 C 694.64,576.5 721.03,542.74 721.03,496.1 721.03,468.9 710.07,414.99 654.88,414.99 603.35,414.99 597.66,470.59 597.66,505.08 597.66,561.49 632.96,576.5 655.7,576.5 z M 975.91,534.7 C 974.69,544.84 964.95,574.87 938.19,592.74 928.44,599.21 914.66,607.35 880.58,607.35 820.94,607.35 785.63,562.3 785.63,501.03 785.63,435.29 817.27,382.96 887.46,382.96 948.75,382.96 978.77,431.64 978.77,506.71 927.11,506.71 875.42,506.71 823.76,506.71 823.76,550.94 844.46,576.5 885.45,576.5 919.12,576.5 939,550.53 940.2,534.7 952.12,534.7 964.02,534.7 975.91,534.7 z M 938.07,478.32 C 936.06,445.43 922.24,414.99 878.83,414.99 845.97,414.99 820,445.43 820,478.32 859.36,478.32 898.71,478.32 938.07,478.32 z M 1176.1,601.25 C 1164.2,601.25 1152.3,601.25 1140.4,601.25 1140.4,557.7 1140.4,514.14 1140.4,470.59 1140.4,433.68 1129.8,414.99 1094.9,414.99 1074.6,414.99 1038.9,428 1038.9,485.6 1038.9,524.14 1038.9,562.71 1038.9,601.25 1027,601.25 1015.1,601.25 1003.3,601.25 1003.3,530.5 1003.3,459.77 1003.3,389.05 1014.5,389.05 1025.7,389.05 1036.9,389.05 1036.9,399.05 1036.9,409.05 1036.9,419.08 1037.2,419.08 1037.5,419.08 1037.7,419.08 1045.4,407.71 1065.3,382.96 1101.8,382.96 1134.7,382.96 1176.1,396.34 1176.1,456.81 1176.1,504.94 1176.1,553.09 1176.1,601.25 z" fill="#939393" />
<path d="M 377.99,589.53 C 287.33,589.53 242.72,534.28 225.35,476.57 244.97,570.26 351.06,661.94 685.73,702.85 1001.9,741.5 1208,644.6 1277.5,599.53 1277.5,599.53 1324.5,578.86 1296.3,610.78 1296.3,610.78 1097.2,794.91 706.4,796.77 315.63,798.67 5.6584,601.4 7.5284,402.26 5.6584,203.11 315.63,5.8738 706.4,7.7348 1097.2,9.6358 1296.3,193.73 1296.3,193.73 1324.5,225.68 1277.5,205.01 1277.5,205.01 1208,159.91 1002.8,71.121 685.73,101.67 373.88,131.75 272.08,237.69 238.27,309.08 225.26,336.54 219.38,362.46 217.89,388.55 226.32,320.45 268.68,240.14 377.99,240.14 501.86,240.14 539.76,343.19 539.76,414.82 539.76,486.45 501.86,589.53 377.99,589.53 z M 1637,520.64 C 1692.1,520.64 1747,520.64 1802.1,520.64 1802.1,540.67 1802.1,560.7 1802.1,580.72 1724,580.72 1645.8,580.72 1567.7,580.72 1567.7,470.12 1567.7,359.52 1567.7,248.92 1590.8,248.92 1614,248.92 1637,248.92 1637,339.49 1637,430.07 1637,520.64 z M 1382.5,401.88 C 1428.7,401.88 1474.9,401.88 1521.1,401.88 1521.1,461.49 1521.1,521.11 1521.1,580.72 1505.7,580.72 1490.3,580.72 1474.9,580.72 1472.6,566.88 1470.3,553 1468,539.16 1450.4,559.48 1425,589.53 1364.5,589.53 1284.5,589.53 1212,532.21 1212,415.75 1212,325.18 1262.3,239.67 1374.2,240.14 1475.8,240.14 1516,306.22 1519.7,351.97 1496.7,351.97 1473.5,351.97 1450.4,351.97 1450.4,339.02 1426.9,297.43 1377.9,297.43 1328.4,297.43 1282.7,331.65 1282.7,416.65 1282.7,507.27 1332.1,530.82 1379.3,530.82 1394.5,530.82 1445.3,524.81 1459.7,457.79 1433.9,457.79 1408.2,457.79 1382.5,457.79 1382.5,439.16 1382.5,420.51 1382.5,401.88 z M 377.99,279.87 C 305.9,279.87 262.47,336.72 262.47,414.82 262.47,492.92 305.9,549.77 377.99,549.77 450.09,549.77 493.55,492.92 493.55,414.82 493.55,336.72 450.09,279.87 377.99,279.87 z M 564.63,368.52 C 575.85,368.52 587.08,368.52 598.3,368.52 598.3,378.55 598.3,388.55 598.3,398.55 598.59,398.55 598.85,398.55 599.12,398.55 607.63,386.39 623.87,362.46 662.4,362.46 718.81,362.46 759.01,410.25 759.01,469.89 759.01,520.61 729.78,586.82 657.54,586.82 629.14,586.82 610.48,573.44 601.16,558.42 600.87,558.42 600.6,558.42 600.34,558.42 600.34,593.85 600.34,629.29 600.34,664.72 588.44,664.72 576.52,664.72 564.63,664.72 564.63,566 564.63,467.26 564.63,368.52 z M 654.85,555.97 C 693.8,555.97 720.22,522.24 720.22,475.57 720.22,448.4 709.22,394.5 654.04,394.5 602.53,394.5 596.84,450.1 596.84,484.58 596.84,540.96 632.14,555.97 654.85,555.97 z M 975.09,514.2 C 973.87,524.34 964.13,554.37 937.34,572.21 927.6,578.71 913.82,586.82 879.74,586.82 820.09,586.82 784.79,541.77 784.79,480.53 784.79,414.79 816.44,362.46 886.64,362.46 947.9,362.46 977.92,411.14 977.92,486.18 926.27,486.18 874.6,486.18 822.92,486.18 822.92,530.41 843.61,555.97 884.6,555.97 918.27,555.97 938.16,530.03 939.38,514.2 951.27,514.2 963.17,514.2 975.09,514.2 z M 937.22,457.79 C 935.21,424.93 921.42,394.5 878.01,394.5 845.13,394.5 819.19,424.93 819.19,457.79 858.54,457.79 897.9,457.79 937.22,457.79 z M 1175.2,580.72 C 1163.4,580.72 1151.4,580.72 1139.5,580.72 1139.5,537.17 1139.5,493.64 1139.5,450.1 1139.5,413.16 1129,394.5 1094.1,394.5 1073.8,394.5 1038.1,407.47 1038.1,465.1 1038.1,503.64 1038.1,542.18 1038.1,580.72 1026.2,580.72 1014.3,580.72 1002.4,580.72 1002.4,510 1002.4,439.28 1002.4,368.52 1013.6,368.52 1024.9,368.52 1036.1,368.52 1036.1,378.55 1036.1,388.55 1036.1,398.55 1036.3,398.55 1036.6,398.55 1036.9,398.55 1044.6,387.21 1064.5,362.46 1101,362.46 1133.9,362.46 1175.2,375.85 1175.2,436.31 1175.2,484.44 1175.2,532.59 1175.2,580.72 z" fill="#8c8c8c" />
<path d="M 377.18,611.75 C 286.49,611.75 241.88,556.53 224.5,498.82 244.13,592.48 350.21,684.2 684.91,725.1 1001.1,763.72 1207.2,666.85 1276.7,621.75 1276.7,621.75 1323.6,601.11 1295.5,633.03 1295.5,633.03 1096.3,817.13 705.58,819.02 314.8,820.89 4.8084,623.65 6.7084,424.51 4.8084,225.36 314.8,28.094 705.58,29.985 1096.3,31.856 1295.5,215.98 1295.5,215.98 1323.6,247.9 1276.7,227.23 1276.7,227.23 1207.2,182.16 1002,93.364 684.91,123.92 373.04,153.97 271.24,259.94 237.42,331.34 224.41,358.79 218.53,384.71 217.07,410.8 225.5,342.67 267.83,262.36 377.18,262.36 501.01,262.36 538.92,365.44 538.92,437.07 538.92,508.7 501.01,611.75 377.18,611.75 z M 1636.2,542.89 C 1691.2,542.89 1746.2,542.89 1801.2,542.89 1801.2,562.92 1801.2,582.95 1801.2,602.97 1723.1,602.97 1645,602.97 1566.9,602.97 1566.9,492.37 1566.9,381.77 1566.9,271.14 1590,271.14 1613.1,271.14 1636.2,271.14 1636.2,361.74 1636.2,452.32 1636.2,542.89 z M 1381.6,424.13 C 1427.9,424.13 1474.1,424.13 1520.3,424.13 1520.3,483.74 1520.3,543.36 1520.3,602.97 1504.9,602.97 1489.5,602.97 1474.1,602.97 1471.8,589.1 1469.5,575.25 1467.2,561.38 1449.6,581.73 1424.2,611.75 1363.6,611.75 1283.7,611.75 1211.1,554.43 1211.1,437.97 1211.1,347.4 1261.5,261.89 1373.3,262.36 1475,262.36 1515.2,328.44 1518.9,374.22 1495.8,374.22 1472.7,374.22 1449.6,374.22 1449.6,361.27 1426,319.68 1377,319.68 1327.6,319.68 1281.8,353.87 1281.8,438.9 1281.8,529.49 1331.3,553.07 1378.4,553.07 1393.7,553.07 1444.5,547.06 1458.8,480.04 1433.1,480.04 1407.4,480.04 1381.6,480.04 1381.6,461.41 1381.6,442.76 1381.6,424.13 z M 377.18,302.12 C 305.08,302.12 261.62,358.97 261.62,437.07 261.62,515.17 305.08,572.01 377.18,572.01 449.27,572.01 492.71,515.17 492.71,437.07 492.71,358.97 449.27,302.12 377.18,302.12 z M 563.78,390.77 C 575.04,390.77 586.26,390.77 597.49,390.77 597.49,400.77 597.49,410.8 597.49,420.8 597.74,420.8 598,420.8 598.27,420.8 606.81,408.61 623.02,384.68 661.59,384.68 717.97,384.68 758.17,432.5 758.17,492.14 758.17,542.86 728.93,609.07 656.72,609.07 628.29,609.07 609.64,595.66 600.31,580.67 600.05,580.64 599.78,580.64 599.5,580.67 599.5,616.1 599.5,651.51 599.5,686.97 587.6,686.97 575.7,686.97 563.78,686.97 563.81,588.22 563.81,489.48 563.78,390.77 z M 654.01,578.22 C 692.95,578.22 719.37,544.47 719.37,497.82 719.37,470.63 708.38,416.75 653.22,416.75 601.69,416.75 595.99,472.32 595.99,506.8 595.99,563.21 631.3,578.22 654.01,578.22 z M 974.25,536.42 C 973.03,546.57 963.28,576.59 936.5,594.46 926.75,600.93 912.97,609.07 878.89,609.07 819.25,609.07 783.94,564.02 783.94,502.75 783.94,437.01 815.6,384.68 885.8,384.68 947.04,384.68 977.07,433.36 977.07,508.44 925.42,508.44 873.76,508.44 822.1,508.44 822.1,552.66 842.8,578.22 883.76,578.22 917.43,578.22 937.31,552.25 938.54,536.42 950.43,536.42 962.36,536.42 974.25,536.42 z M 936.41,480.04 C 934.37,447.15 920.57,416.75 877.17,416.75 844.31,416.75 818.34,447.15 818.34,480.04 857.7,480.04 897.05,480.04 936.41,480.04 z M 1174.4,602.97 C 1162.5,602.97 1150.6,602.97 1138.7,602.97 1138.7,559.42 1138.7,515.87 1138.7,472.32 1138.7,435.41 1128.2,416.75 1093.3,416.75 1073,416.75 1037.3,429.72 1037.3,487.32 1037.3,525.86 1037.3,564.43 1037.3,602.97 1025.4,602.97 1013.4,602.97 1001.6,602.97 1001.6,532.25 1001.6,461.5 1001.6,390.77 1012.8,390.77 1024,390.77 1035.2,390.77 1035.2,400.77 1035.2,410.8 1035.2,420.8 1035.5,420.8 1035.8,420.8 1036,420.8 1043.8,409.43 1063.7,384.68 1100.2,384.68 1133,384.68 1174.4,398.07 1174.4,458.53 1174.4,506.69 1174.4,554.82 1174.4,602.97 z" fill="#878787" />
<path d="M 376.33,587.81 C 285.64,587.81 241.06,532.57 223.66,474.85 243.31,568.54 349.4,660.23 684.07,701.13 1000.3,739.78 1206.3,642.9 1275.8,597.81 1275.8,597.81 1322.8,577.14 1294.6,609.09 1294.6,609.09 1095.5,793.19 704.73,795.06 313.97,796.95 3.9984,599.68 5.8684,400.53 3.9984,201.39 313.97,4.1528 704.73,6.0138 1095.5,7.9138 1294.6,192.01 1294.6,192.01 1322.8,223.96 1275.8,203.29 1275.8,203.29 1206.3,158.19 1001.2,69.399 684.07,99.974 372.19,130.03 270.43,235.97 236.6,307.37 223.57,334.82 217.69,360.74 216.23,386.83 224.65,318.73 266.98,238.42 376.33,238.42 500.2,238.42 538.1,341.47 538.1,413.1 538.1,484.76 500.2,587.81 376.33,587.81 z M 1635.4,518.95 C 1690.4,518.93 1745.4,518.93 1800.4,518.95 1800.4,538.98 1800.4,558.98 1800.4,579.03 1722.3,579.01 1644.2,579.01 1566.1,579.03 1566.1,468.4 1566.1,357.8 1566.1,247.19 1589.2,247.19 1612.3,247.19 1635.4,247.19 1635.4,337.77 1635.4,428.35 1635.4,518.95 z M 1380.8,400.16 C 1427,400.16 1473.2,400.16 1519.5,400.16 1519.5,459.77 1519.5,519.39 1519.5,579.03 1504.1,579.01 1488.7,579.01 1473.2,579.03 1470.9,565.16 1468.6,551.28 1466.3,537.44 1448.8,557.76 1423.3,587.81 1362.8,587.81 1282.9,587.81 1210.3,530.49 1210.3,414.03 1210.3,323.46 1260.7,237.95 1372.5,238.42 1474.2,238.42 1514.4,304.51 1518.1,350.24 1495,350.24 1471.9,350.24 1448.8,350.24 1448.8,337.3 1425.2,295.73 1376.2,295.73 1326.8,295.73 1281,329.92 1281,414.96 1281,505.54 1330.5,529.1 1377.6,529.1 1392.8,529.1 1443.7,523.09 1458,456.1 1432.3,456.07 1406.5,456.07 1380.8,456.1 1380.8,437.44 1380.8,418.81 1380.8,400.16 z M 376.33,278.15 C 304.24,278.15 260.8,335 260.8,413.1 260.8,491.2 304.24,548.04 376.33,548.04 448.42,548.04 491.86,491.2 491.86,413.1 491.86,335 448.42,278.15 376.33,278.15 z M 562.97,366.8 C 574.19,366.8 585.42,366.8 596.64,366.8 596.64,376.83 596.64,386.83 596.64,396.83 596.9,396.83 597.19,396.83 597.46,396.83 605.96,384.67 622.2,360.74 660.74,360.74 717.15,360.74 757.32,408.52 757.32,468.17 757.32,518.9 728.09,585.1 655.88,585.1 627.48,585.1 608.79,571.72 599.47,556.7 599.2,556.7 598.94,556.7 598.68,556.7 598.68,592.13 598.68,627.57 598.68,663.02 586.76,662.99 574.86,662.99 562.97,663.02 562.97,564.28 562.97,465.54 562.97,366.8 z M 653.19,554.25 C 692.14,554.25 718.53,520.53 718.53,473.85 718.53,446.69 707.56,392.78 652.37,392.78 600.84,392.78 595.15,448.38 595.15,482.86 595.15,539.27 630.45,554.25 653.19,554.25 z M 973.4,512.48 C 972.18,522.63 962.44,552.65 935.68,570.49 925.94,576.99 912.16,585.1 878.07,585.1 818.43,585.1 783.12,540.05 783.12,478.81 783.12,413.07 814.76,360.74 884.95,360.74 946.23,360.74 976.26,409.43 976.26,484.5 924.6,484.5 872.91,484.5 821.26,484.5 821.26,528.72 841.95,554.25 882.94,554.25 916.61,554.25 936.5,528.31 937.69,512.48 949.61,512.48 961.51,512.48 973.4,512.48 z M 935.56,456.07 C 933.55,423.21 919.73,392.78 876.32,392.78 843.47,392.78 817.49,423.21 817.49,456.07 856.85,456.07 896.2,456.07 935.56,456.07 z M 1173.6,579.03 C 1161.7,579.01 1149.8,579.01 1137.9,579.03 1137.9,535.49 1137.9,491.93 1137.9,448.38 1137.9,411.44 1127.3,392.78 1092.4,392.78 1072.1,392.78 1036.4,405.78 1036.4,463.38 1036.4,501.92 1036.4,540.47 1036.4,579.03 1024.5,579.01 1012.6,579.01 1000.7,579.03 1000.7,508.28 1000.7,437.56 1000.7,366.8 1012,366.8 1023.2,366.8 1034.4,366.8 1034.4,376.83 1034.4,386.83 1034.4,396.83 1034.7,396.83 1034.9,396.83 1035.2,396.83 1042.9,385.49 1062.8,360.74 1099.3,360.74 1132.2,360.74 1173.6,374.13 1173.6,434.59 1173.6,482.72 1173.6,530.88 1173.6,579.03 z" fill="#7f7f7f" />
<path d="M 375.49,613.45 C 284.83,613.45 240.22,558.24 222.84,500.52 242.47,594.19 348.55,685.9 683.22,726.8 999.43,765.43 1205.5,668.56 1275,623.45 1275,623.45 1322,602.81 1293.8,634.73 1293.8,634.73 1094.6,818.86 703.89,820.73 313.13,822.59 3.1484,625.35 5.0184,426.21 3.1484,227.06 313.13,29.796 703.89,31.697 1094.6,33.558 1293.8,217.68 1293.8,217.68 1322,249.6 1275,228.94 1275,228.94 1205.5,183.86 1000.3,95.074 683.22,125.62 371.38,155.67 269.57,261.64 235.76,333.04 222.76,360.5 216.87,386.42 215.38,412.51 223.81,344.37 266.17,264.06 375.49,264.06 499.35,264.06 537.25,367.15 537.25,438.78 537.25,510.4 499.35,613.45 375.49,613.45 z M 1634.5,544.6 C 1689.6,544.6 1744.5,544.6 1799.5,544.6 1799.5,564.62 1799.5,584.65 1799.5,604.68 1721.5,604.68 1643.3,604.68 1565.2,604.68 1565.2,494.07 1565.2,383.47 1565.2,272.87 1588.3,272.87 1611.5,272.87 1634.5,272.87 1634.5,363.44 1634.5,454.02 1634.5,544.6 z M 1380,425.83 C 1426.2,425.83 1472.4,425.83 1518.6,425.83 1518.6,485.44 1518.6,545.06 1518.6,604.68 1503.2,604.68 1487.8,604.68 1472.4,604.68 1470.1,590.8 1467.8,576.95 1465.5,563.08 1447.9,583.43 1422.5,613.45 1361.9,613.45 1282,613.45 1209.4,556.14 1209.4,439.68 1209.4,349.1 1259.8,263.59 1371.6,264.06 1473.3,264.06 1513.5,330.15 1517.2,375.92 1494.1,375.92 1471,375.92 1447.9,375.92 1447.9,362.97 1424.4,321.38 1375.3,321.38 1325.9,321.38 1280.2,355.57 1280.2,440.61 1280.2,531.19 1329.6,554.77 1376.7,554.77 1392,554.77 1442.8,548.76 1457.2,481.74 1431.4,481.74 1405.7,481.74 1380,481.74 1380,463.12 1380,444.46 1380,425.83 z M 375.49,303.82 C 303.39,303.82 259.96,360.67 259.96,438.78 259.96,516.87 303.39,573.72 375.49,573.72 447.58,573.72 491.04,516.87 491.04,438.78 491.04,360.67 447.58,303.82 375.49,303.82 z M 562.12,392.48 C 573.35,392.48 584.57,392.48 595.79,392.48 595.79,402.48 595.79,412.51 595.79,422.51 596.08,422.51 596.34,422.51 596.61,422.51 605.12,410.32 621.36,386.39 659.9,386.39 716.31,386.39 756.51,434.2 756.51,493.84 756.51,544.57 727.27,610.77 655.03,610.77 626.63,610.77 607.97,597.39 598.65,582.37 598.35,582.37 598.09,582.37 597.83,582.37 597.83,617.8 597.83,653.24 597.83,688.67 585.94,688.67 574.01,688.67 562.12,688.67 562.12,589.93 562.12,491.19 562.12,392.48 z M 652.34,579.93 C 691.29,579.93 717.71,546.17 717.71,499.52 717.71,472.33 706.71,418.46 651.53,418.46 600.01,418.46 594.33,474.02 594.33,508.51 594.33,564.92 629.64,579.93 652.34,579.93 z M 972.56,538.12 C 971.36,548.27 961.62,578.29 934.83,596.17 925.09,602.63 911.31,610.77 877.23,610.77 817.58,610.77 782.28,565.74 782.28,504.45 782.28,438.75 813.94,386.39 884.13,386.39 945.38,386.39 975.41,435.07 975.41,510.14 923.76,510.14 872.09,510.14 820.41,510.14 820.41,554.36 841.11,579.93 882.09,579.93 915.77,579.93 935.65,553.95 936.87,538.12 948.77,538.12 960.67,538.12 972.56,538.12 z M 934.71,481.74 C 932.7,448.89 918.91,418.46 875.51,418.46 842.62,418.46 816.68,448.89 816.68,481.74 856.03,481.74 895.39,481.74 934.71,481.74 z M 1172.7,604.68 C 1160.8,604.68 1148.9,604.68 1137,604.68 1137,561.13 1137,517.58 1137,474.02 1137,437.11 1126.5,418.46 1091.6,418.46 1071.3,418.46 1035.6,431.42 1035.6,489.03 1035.6,527.61 1035.6,566.13 1035.6,604.68 1023.7,604.68 1011.8,604.68 999.9,604.68 999.9,533.95 999.9,463.2 999.9,392.48 1011.1,392.48 1022.3,392.48 1033.6,392.48 1033.6,402.48 1033.6,412.51 1033.6,422.51 1033.8,422.51 1034.1,422.51 1034.4,422.51 1042.1,411.13 1062,386.39 1098.5,386.39 1131.3,386.39 1172.7,399.8 1172.7,460.23 1172.7,508.39 1172.7,556.52 1172.7,604.68 z" fill="#777777" />
<path d="M 374.67,586.1 C 283.98,586.1 239.37,530.85 222,473.15 241.62,566.82 347.7,658.51 682.41,699.43 998.59,738.06 1204.7,641.19 1274.2,596.09 1274.2,596.09 1321.1,575.42 1293,607.37 1293,607.37 1093.8,791.47 703.07,793.36 312.29,795.23 2.3084,597.99 4.2084,398.84 2.3084,199.7 312.29,2.4311 703.07,4.3318 1093.8,6.1928 1293,190.29 1293,190.29 1321.1,222.24 1274.2,201.57 1274.2,201.57 1204.7,156.47 999.49,67.678 682.41,98.254 370.53,128.31 268.74,234.25 234.91,305.64 221.92,333.13 216.03,359.02 214.56,385.11 222.99,317.01 265.32,236.7 374.67,236.7 498.51,236.7 536.41,339.76 536.41,411.38 536.41,483.04 498.51,586.1 374.67,586.1 z M 1633.7,517.23 C 1688.7,517.23 1743.7,517.23 1798.7,517.23 1798.7,537.26 1798.7,557.29 1798.7,577.32 1720.6,577.32 1642.5,577.32 1564.4,577.32 1564.4,466.69 1564.4,356.07 1564.4,245.47 1587.5,245.47 1610.6,245.47 1633.7,245.47 1633.7,336.05 1633.7,426.63 1633.7,517.23 z M 1379.1,398.43 C 1425.3,398.43 1471.6,398.43 1517.8,398.43 1517.8,458.05 1517.8,517.69 1517.8,577.32 1502.4,577.32 1487,577.32 1471.6,577.32 1469.3,563.44 1467,549.57 1464.6,535.71 1447.1,556.03 1421.7,586.1 1361.1,586.1 1281.2,586.1 1208.6,528.78 1208.6,412.32 1208.6,321.74 1259,236.23 1370.8,236.7 1472.5,236.7 1512.7,302.79 1516.4,348.52 1493.3,348.52 1470.2,348.52 1447.1,348.52 1447.1,335.62 1423.5,294.01 1374.5,294.01 1325.1,294.01 1279.3,328.2 1279.3,413.24 1279.3,503.82 1328.8,527.41 1375.9,527.41 1391.1,527.41 1442,521.38 1456.3,454.38 1430.6,454.38 1404.9,454.38 1379.1,454.38 1379.1,435.72 1379.1,417.09 1379.1,398.43 z M 374.67,276.43 C 302.55,276.43 259.11,333.28 259.11,411.38 259.11,489.5 302.55,546.32 374.67,546.32 446.76,546.32 490.2,489.5 490.2,411.38 490.2,333.28 446.76,276.43 374.67,276.43 z M 561.28,365.11 C 572.53,365.11 583.75,365.11 594.98,365.11 594.98,375.11 594.98,385.11 594.98,395.11 595.24,395.11 595.5,395.11 595.76,395.11 604.3,382.95 620.51,359.02 659.08,359.02 715.46,359.02 755.66,406.83 755.66,466.48 755.66,517.18 726.43,583.38 654.21,583.38 625.79,583.38 607.13,569.99 597.8,554.98 597.54,554.98 597.28,554.98 596.99,554.98 596.99,590.43 596.99,625.86 596.99,661.3 585.09,661.3 573.2,661.3 561.28,661.3 561.31,562.56 561.31,463.82 561.28,365.11 z M 651.5,552.56 C 690.45,552.56 716.86,518.81 716.86,472.13 716.86,444.96 705.87,391.06 650.68,391.06 599.18,391.06 593.49,446.66 593.49,481.15 593.49,537.56 628.79,552.56 651.5,552.56 z M 971.74,510.76 C 970.52,520.91 960.78,550.93 933.99,568.77 924.26,575.27 910.46,583.38 876.38,583.38 816.74,583.38 781.43,538.37 781.43,477.09 781.43,411.35 813.1,359.02 883.29,359.02 944.55,359.02 974.57,407.71 974.57,482.78 922.91,482.78 871.25,482.78 819.59,482.78 819.59,527 840.29,552.56 881.25,552.56 914.92,552.56 934.8,526.59 936.03,510.76 947.92,510.76 959.85,510.76 971.74,510.76 z M 933.9,454.38 C 931.86,421.49 918.07,391.06 874.66,391.06 841.8,391.06 815.83,421.49 815.83,454.38 855.19,454.35 894.54,454.35 933.9,454.38 z M 1171.9,577.32 C 1160,577.32 1148.1,577.32 1136.2,577.32 1136.2,533.76 1136.2,490.21 1136.2,446.66 1136.2,409.72 1125.7,391.06 1090.8,391.06 1070.5,391.06 1034.8,404.07 1034.8,461.67 1034.8,500.21 1034.8,538.75 1034.8,577.32 1022.9,577.32 1010.9,577.32 999.06,577.32 999.06,506.56 999.06,435.84 999.06,365.11 1010.3,365.11 1021.5,365.11 1032.7,365.11 1032.7,375.11 1032.7,385.11 1032.7,395.11 1033,395.11 1033.3,395.11 1033.5,395.11 1041.3,383.77 1061.1,359.02 1097.6,359.02 1130.5,359.02 1171.9,372.4 1171.9,432.86 1171.9,481 1171.9,529.16 1171.9,577.32 z" fill="#707070" />
<path d="M 373.82,615.18 C 283.13,615.18 238.55,559.96 221.15,502.24 240.8,595.91 346.89,687.62 681.56,728.52 997.77,767.18 1203.8,670.28 1273.4,625.2 1273.4,625.2 1320.3,604.53 1292.1,636.46 1292.1,636.46 1093,820.58 702.23,822.45 311.47,824.34 1.4884,627.07 3.3584,427.93 1.4884,228.8 311.47,31.547 702.23,33.417 1093,35.278 1292.1,219.4 1292.1,219.4 1320.3,251.35 1273.4,230.69 1273.4,230.69 1203.8,185.59 998.65,96.794 681.56,127.34 369.68,157.4 267.92,263.36 234.1,334.76 221.06,362.22 215.18,388.14 213.72,414.23 222.15,346.12 264.48,265.78 373.82,265.78 497.69,265.78 535.59,368.87 535.59,440.5 535.59,512.12 497.69,615.18 373.82,615.18 z M 1632.9,546.32 C 1687.9,546.32 1742.9,546.32 1797.9,546.32 1797.9,566.34 1797.9,586.37 1797.9,606.4 1719.8,606.4 1641.7,606.4 1563.6,606.4 1563.6,495.8 1563.6,385.19 1563.6,274.59 1586.7,274.59 1609.8,274.59 1632.9,274.59 1632.9,365.16 1632.9,455.74 1632.9,546.32 z M 1378.3,427.55 C 1424.5,427.55 1470.7,427.55 1516.9,427.55 1516.9,487.16 1516.9,546.79 1516.9,606.4 1501.6,606.4 1486.2,606.4 1470.7,606.4 1468.4,592.55 1466.1,578.68 1463.8,564.8 1446.2,585.15 1420.8,615.18 1360.3,615.18 1280.3,615.18 1207.8,557.89 1207.8,441.43 1207.8,350.82 1258.2,265.34 1370,265.78 1471.7,265.78 1511.9,331.87 1515.6,377.64 1492.5,377.64 1469.4,377.64 1446.2,377.64 1446.2,364.7 1422.7,323.1 1373.7,323.1 1324.2,323.1 1278.5,357.3 1278.5,442.33 1278.5,532.94 1327.9,556.49 1375.1,556.49 1390.3,556.49 1441.2,550.49 1455.5,483.46 1429.7,483.46 1404,483.46 1378.3,483.46 1378.3,464.84 1378.3,446.18 1378.3,427.55 z M 373.82,305.54 C 301.73,305.54 258.3,362.39 258.3,440.5 258.3,518.59 301.73,575.44 373.82,575.44 445.92,575.44 489.35,518.59 489.35,440.5 489.35,362.39 445.92,305.54 373.82,305.54 z M 560.46,394.2 C 571.68,394.2 582.91,394.2 594.13,394.2 594.13,404.2 594.13,414.23 594.13,424.23 594.39,424.23 594.68,424.23 594.95,424.23 603.46,412.07 619.7,388.11 658.23,388.11 714.65,388.11 754.81,435.92 754.81,495.56 754.81,546.29 725.58,612.49 653.37,612.49 624.97,612.49 606.28,599.11 596.96,584.1 596.7,584.1 596.43,584.1 596.17,584.1 596.17,619.52 596.17,654.97 596.17,690.39 584.25,690.39 572.35,690.39 560.46,690.39 560.46,591.65 560.46,492.94 560.46,394.2 z M 650.68,581.65 C 689.63,581.65 716.02,547.92 716.02,501.25 716.02,474.05 705.05,420.18 649.87,420.18 598.33,420.18 592.64,475.77 592.64,510.26 592.64,566.64 627.95,581.65 650.68,581.65 z M 970.9,539.87 C 969.67,550.02 959.93,580.04 933.17,597.89 923.44,604.39 909.65,612.49 875.57,612.49 815.92,612.49 780.62,567.46 780.62,506.18 780.62,440.47 812.25,388.11 882.44,388.11 943.73,388.11 973.75,436.79 973.75,511.86 922.1,511.86 870.4,511.86 818.75,511.86 818.75,556.08 839.45,581.65 880.43,581.65 914.11,581.65 933.99,555.68 935.18,539.87 947.1,539.87 959,539.87 970.9,539.87 z M 933.05,483.46 C 931.04,450.61 917.23,420.18 873.82,420.18 840.96,420.18 814.99,450.61 814.99,483.46 854.34,483.46 893.7,483.46 933.05,483.46 z M 1171.1,606.4 C 1159.2,606.4 1147.3,606.4 1135.4,606.4 1135.4,562.85 1135.4,519.3 1135.4,475.77 1135.4,438.83 1124.8,420.18 1089.9,420.18 1069.6,420.18 1033.9,433.15 1033.9,490.79 1033.9,529.33 1033.9,567.87 1033.9,606.4 1022,606.4 1010.1,606.4 998.21,606.4 998.21,535.67 998.21,464.93 998.21,394.2 1009.5,394.2 1020.7,394.2 1031.9,394.2 1031.9,404.2 1031.9,414.23 1031.9,424.23 1032.2,424.23 1032.4,424.23 1032.7,424.23 1040.4,412.85 1060.3,388.11 1096.8,388.11 1129.7,388.11 1171.1,401.52 1171.1,461.95 1171.1,510.11 1171.1,558.27 1171.1,606.4 z" fill="#686868" />
<path d="M 372.98,584.37 C 282.32,584.37 237.71,529.13 220.33,471.43 239.96,565.1 346.04,656.78 680.71,697.71 996.93,736.34 1203,639.47 1272.5,594.37 1272.5,594.37 1319.5,573.7 1291.3,605.65 1291.3,605.65 1092.1,789.75 701.38,791.65 310.62,793.51 0.63842,596.26 2.5084,397.12 0.63842,197.99 310.62,0.70956 701.38,2.6102 1092.1,4.4708 1291.3,188.56 1291.3,188.56 1319.5,220.52 1272.5,199.85 1272.5,199.85 1203,154.78 997.8,65.957 680.71,96.534 368.87,126.59 267.07,232.53 233.25,303.92 220.25,331.42 214.36,357.3 212.87,383.42 221.3,315.3 263.66,234.97 372.98,234.97 496.84,234.97 534.75,338.03 534.75,409.66 534.75,481.31 496.84,584.37 372.98,584.37 z M 1632,515.51 C 1687.1,515.51 1742,515.51 1797,515.51 1797,535.54 1797,555.57 1797,575.6 1718.9,575.6 1640.8,575.6 1562.7,575.6 1562.7,464.97 1562.7,354.35 1562.7,243.75 1585.8,243.75 1608.9,243.75 1632,243.75 1632,334.33 1632,424.93 1632,515.51 z M 1377.5,396.74 C 1423.7,396.74 1469.9,396.74 1516.1,396.74 1516.1,456.33 1516.1,515.98 1516.1,575.6 1500.7,575.6 1485.3,575.6 1469.9,575.6 1467.6,561.72 1465.3,547.87 1463,533.99 1445.4,554.31 1420,584.37 1359.4,584.37 1279.5,584.37 1206.9,527.06 1206.9,410.59 1206.9,320.01 1257.3,234.51 1369.1,234.97 1470.8,234.97 1511,301.07 1514.7,346.83 1491.6,346.83 1468.5,346.83 1445.4,346.83 1445.4,333.89 1421.8,292.29 1372.8,292.29 1323.4,292.29 1277.7,326.49 1277.7,411.53 1277.7,502.1 1327.1,525.68 1374.2,525.68 1389.5,525.68 1440.3,519.68 1454.6,452.66 1428.9,452.66 1403.2,452.66 1377.5,452.66 1377.5,434 1377.5,415.37 1377.5,396.74 z M 372.98,274.71 C 300.89,274.71 257.45,331.56 257.45,409.66 257.45,487.79 300.89,544.63 372.98,544.63 445.07,544.63 488.54,487.79 488.54,409.66 488.54,331.56 445.07,274.71 372.98,274.71 z M 559.61,363.4 C 570.84,363.4 582.06,363.4 593.29,363.4 593.29,373.39 593.29,383.39 593.29,393.42 593.58,393.42 593.83,393.42 594.1,393.42 602.61,381.23 618.85,357.3 657.39,357.3 713.8,357.3 754,405.11 754,464.76 754,515.46 724.77,581.69 652.52,581.69 624.12,581.69 605.47,568.27 596.14,553.27 595.85,553.27 595.59,553.27 595.33,553.27 595.33,588.71 595.33,624.14 595.33,659.58 583.43,659.58 571.5,659.58 559.61,659.58 559.61,560.84 559.61,462.11 559.61,363.4 z M 649.84,550.85 C 688.78,550.85 715.2,517.09 715.2,470.42 715.2,443.24 704.21,389.37 649.02,389.37 597.52,389.37 591.82,444.93 591.82,479.42 591.82,535.83 627.13,550.85 649.84,550.85 z M 970.05,509.04 C 968.86,519.19 959.11,549.21 932.33,567.08 922.59,573.56 908.8,581.69 874.72,581.69 815.08,581.69 779.77,536.65 779.77,475.36 779.77,409.63 811.43,357.3 881.63,357.3 942.88,357.3 972.91,405.99 972.91,481.06 921.25,481.06 869.59,481.06 817.9,481.06 817.9,525.28 838.6,550.85 879.59,550.85 913.26,550.85 933.14,524.87 934.37,509.04 946.26,509.04 958.16,509.04 970.05,509.04 z M 932.21,452.66 C 930.2,419.78 916.4,389.37 873,389.37 840.11,389.37 814.14,419.78 814.14,452.66 853.53,452.66 892.88,452.66 932.21,452.66 z M 1170.2,575.6 C 1158.3,575.6 1146.4,575.6 1134.5,575.6 1134.5,532.04 1134.5,488.49 1134.5,444.93 1134.5,408.03 1124,389.37 1089.1,389.37 1068.8,389.37 1033.1,402.35 1033.1,459.95 1033.1,498.49 1033.1,537.03 1033.1,575.6 1021.2,575.6 1009.3,575.6 997.39,575.6 997.39,504.84 997.39,434.12 997.39,363.4 1008.6,363.4 1019.8,363.4 1031.1,363.4 1031.1,373.39 1031.1,383.39 1031.1,393.42 1031.3,393.42 1031.6,393.42 1031.9,393.42 1039.6,382.06 1059.5,357.3 1096,357.3 1128.8,357.3 1170.2,370.68 1170.2,431.14 1170.2,479.27 1170.2,527.44 1170.2,575.6 z" fill="#606060" />
<path d="M 372.16,616.93 C 281.47,616.93 236.86,561.69 219.49,503.96 239.11,597.66 345.2,689.34 679.9,730.24 996.08,768.9 1202.2,672 1271.7,626.93 1271.7,626.93 1318.6,606.25 1290.5,638.18 1290.5,638.18 1091.3,822.3 700.57,824.18 309.78,826.07 -0.20158,628.79 1.6984,429.65 -0.20158,230.52 309.78,33.268 700.57,35.139 1091.3,37.03 1290.5,221.12 1290.5,221.12 1318.6,253.07 1271.7,232.41 1271.7,232.41 1202.2,187.31 996.99,98.514 679.9,129.06 368.02,159.12 266.23,265.09 232.41,336.48 219.41,363.95 213.52,389.86 212.06,415.95 220.48,347.86 262.81,267.53 372.16,267.53 496,267.53 533.9,370.59 533.9,442.22 533.9,513.84 496,616.93 372.16,616.93 z M 1631.2,548.04 C 1686.2,548.04 1741.2,548.04 1796.2,548.04 1796.2,568.07 1796.2,588.09 1796.2,608.13 1718.1,608.13 1640,608.13 1561.9,608.13 1561.9,497.52 1561.9,386.91 1561.9,276.31 1585,276.31 1608.1,276.31 1631.2,276.31 1631.2,366.89 1631.2,457.46 1631.2,548.04 z M 1376.6,429.27 C 1422.8,429.27 1469.1,429.27 1515.3,429.27 1515.3,488.9 1515.3,548.51 1515.3,608.13 1499.9,608.13 1484.5,608.13 1469.1,608.13 1466.8,594.27 1464.4,580.4 1462.1,566.55 1444.6,586.87 1419.2,616.93 1358.6,616.93 1278.7,616.93 1206.1,559.62 1206.1,443.15 1206.1,352.57 1256.5,267.07 1368.3,267.53 1470,267.53 1510.2,333.63 1513.9,379.37 1490.8,379.37 1467.7,379.37 1444.6,379.37 1444.6,366.42 1421,324.82 1372,324.82 1322.6,324.82 1276.8,359.05 1276.8,444.06 1276.8,534.66 1326.3,558.21 1373.4,558.21 1388.6,558.21 1439.5,552.21 1453.8,485.18 1428.1,485.18 1402.4,485.18 1376.6,485.18 1376.6,466.56 1376.6,447.9 1376.6,429.27 z M 372.16,307.27 C 300.04,307.27 256.61,364.11 256.61,442.22 256.61,520.32 300.04,577.17 372.16,577.17 444.26,577.17 487.7,520.32 487.7,442.22 487.7,364.11 444.26,307.27 372.16,307.27 z M 558.77,395.93 C 570.02,395.93 581.25,395.93 592.47,395.93 592.47,405.96 592.47,415.95 592.47,425.95 592.73,425.95 592.99,425.95 593.26,425.95 601.79,413.8 618,389.83 656.57,389.83 712.95,389.83 753.15,437.64 753.15,497.28 753.15,548.01 723.92,614.22 651.71,614.22 623.28,614.22 604.62,600.84 595.3,585.83 595.04,585.83 594.77,585.83 594.48,585.83 594.48,621.24 594.48,656.69 594.48,692.11 582.59,692.11 570.69,692.11 558.77,692.11 558.8,593.4 558.8,494.66 558.77,395.93 z M 648.99,583.38 C 687.94,583.38 714.36,549.65 714.36,502.98 714.36,475.8 703.36,421.9 648.17,421.9 596.67,421.9 590.98,477.49 590.98,511.98 590.98,568.36 626.28,583.38 648.99,583.38 z M 969.23,541.6 C 968.01,551.74 958.28,581.77 931.48,599.61 921.75,606.12 907.96,614.22 873.87,614.22 814.23,614.22 778.93,569.18 778.93,507.93 778.93,442.19 810.59,389.83 880.78,389.83 942.04,389.83 972.06,438.55 972.06,513.58 920.4,513.58 868.74,513.58 817.09,513.58 817.09,557.8 837.78,583.38 878.74,583.38 912.41,583.38 932.3,557.43 933.52,541.6 945.41,541.6 957.34,541.6 969.23,541.6 z M 931.39,485.18 C 929.35,452.34 915.56,421.9 872.15,421.9 839.3,421.9 813.32,452.34 813.32,485.18 852.68,485.18 892.03,485.18 931.39,485.18 z M 1169.4,608.13 C 1157.5,608.13 1145.6,608.13 1133.7,608.13 1133.7,564.57 1133.7,521.02 1133.7,477.49 1133.7,440.56 1123.2,421.9 1088.3,421.9 1068,421.9 1032.3,434.87 1032.3,492.51 1032.3,531.05 1032.3,569.59 1032.3,608.13 1020.4,608.13 1008.4,608.13 996.55,608.13 996.55,537.41 996.55,466.65 996.55,395.93 1007.8,395.93 1019,395.93 1030.2,395.93 1030.2,405.96 1030.2,415.95 1030.2,425.95 1030.5,425.95 1030.8,425.95 1031,425.95 1038.8,414.58 1058.6,389.83 1095.1,389.83 1128,389.83 1169.4,403.24 1169.4,463.67 1169.4,511.83 1169.4,559.99 1169.4,608.13 z" fill="#595959" />
<path d="M 371.32,582.65 C 280.63,582.65 236.05,527.41 218.64,469.71 238.3,563.38 344.38,655.09 679.05,695.99 995.26,734.62 1201.3,637.75 1270.8,592.65 1270.8,592.65 1317.8,571.98 1289.6,603.93 1289.6,603.93 1090.5,788.02 699.72,789.93 308.97,791.79 -1.0216,594.54 0.84842,395.4 -1.0216,196.27 308.97,-1.0118 699.72,0.88876 1090.5,2.7495 1289.6,186.87 1289.6,186.87 1317.8,218.8 1270.8,198.13 1270.8,198.13 1201.3,153.06 996.14,64.265 679.05,94.814 367.18,124.87 265.41,230.84 231.59,302.23 218.56,329.7 212.67,355.61 211.21,381.7 219.64,313.58 261.97,233.25 371.32,233.25 495.18,233.25 533.09,336.34 533.09,407.97 533.09,479.59 495.18,582.65 371.32,582.65 z M 1630.4,513.79 C 1685.4,513.79 1740.4,513.79 1795.3,513.79 1795.3,533.82 1795.3,553.84 1795.3,573.88 1717.3,573.88 1639.1,573.88 1561.1,573.88 1561.1,463.27 1561.1,352.66 1561.1,242.03 1584.2,242.03 1607.3,242.03 1630.4,242.03 1630.4,332.64 1630.4,423.21 1630.4,513.79 z M 1375.8,395.02 C 1422,395.02 1468.2,395.02 1514.4,395.02 1514.4,454.65 1514.4,514.26 1514.4,573.88 1499,573.88 1483.6,573.88 1468.2,573.88 1465.9,559.99 1463.6,546.15 1461.3,532.27 1443.7,552.62 1418.3,582.65 1357.8,582.65 1277.8,582.65 1205.3,525.34 1205.3,408.87 1205.3,318.29 1255.6,232.8 1367.5,233.25 1469.2,233.25 1509.4,299.35 1513.1,345.12 1489.9,345.12 1466.9,345.12 1443.7,345.12 1443.7,332.17 1420.2,290.57 1371.2,290.57 1321.7,290.57 1276,324.77 1276,409.81 1276,500.38 1325.4,523.96 1372.6,523.96 1387.8,523.96 1438.7,517.96 1453,450.93 1427.2,450.93 1401.5,450.93 1375.8,450.93 1375.8,432.31 1375.8,413.65 1375.8,395.02 z M 371.32,273.03 C 299.22,273.03 255.79,329.86 255.79,407.97 255.79,486.07 299.22,542.92 371.32,542.92 443.41,542.92 486.85,486.07 486.85,407.97 486.85,329.86 443.41,273.03 371.32,273.03 z M 557.95,361.68 C 569.18,361.68 580.4,361.68 591.62,361.68 591.62,371.68 591.62,381.7 591.62,391.7 591.88,391.7 592.17,391.7 592.44,391.7 600.95,379.52 617.19,355.58 655.73,355.58 712.14,355.58 752.31,403.39 752.31,463.03 752.31,513.76 723.07,579.97 650.86,579.97 622.46,579.97 603.78,566.56 594.45,551.55 594.19,551.55 593.92,551.55 593.66,551.55 593.66,586.99 593.66,622.42 593.66,657.86 581.74,657.86 569.84,657.86 557.95,657.86 557.95,559.13 557.95,460.39 557.95,361.68 z M 648.17,549.13 C 687.12,549.13 713.51,515.37 713.51,468.72 713.51,441.52 702.55,387.65 647.36,387.65 595.82,387.65 590.13,443.21 590.13,477.7 590.13,534.11 625.44,549.13 648.17,549.13 z M 968.39,507.32 C 967.16,517.47 957.42,547.5 930.66,565.36 920.92,571.84 907.14,579.97 873.06,579.97 813.41,579.97 778.11,534.93 778.11,473.65 778.11,407.91 809.74,355.58 879.93,355.58 941.22,355.58 971.24,404.27 971.24,479.33 919.59,479.33 867.89,479.33 816.24,479.33 816.24,523.55 836.94,549.13 877.92,549.13 911.6,549.13 931.48,523.15 932.67,507.32 944.6,507.32 956.5,507.32 968.39,507.32 z M 930.54,450.93 C 928.53,418.06 914.71,387.65 871.31,387.65 838.45,387.65 812.48,418.06 812.48,450.93 851.83,450.93 891.19,450.93 930.54,450.93 z M 1168.6,573.88 C 1156.7,573.88 1144.8,573.88 1132.9,573.88 1132.9,530.32 1132.9,486.77 1132.9,443.21 1132.9,406.31 1122.3,387.65 1087.4,387.65 1067.1,387.65 1031.4,400.62 1031.4,458.23 1031.4,496.77 1031.4,535.34 1031.4,573.88 1019.5,573.88 1007.6,573.88 995.7,573.88 995.7,503.13 995.7,432.4 995.7,361.68 1007,361.68 1018.2,361.68 1029.4,361.68 1029.4,371.68 1029.4,381.7 1029.4,391.7 1029.7,391.7 1029.9,391.7 1030.2,391.7 1037.9,380.33 1057.8,355.58 1094.3,355.58 1127.2,355.58 1168.6,368.96 1168.6,429.42 1168.6,477.58 1168.6,525.71 1168.6,573.88 z" fill="#545454" />
<path d="M 370.47,618.65 C 279.78,618.65 235.2,563.41 217.8,505.71 237.45,599.38 343.53,691.06 678.21,731.97 994.42,770.62 1200.5,673.75 1270,628.65 1270,628.65 1317,607.99 1288.8,639.94 1288.8,639.94 1089.6,824.03 698.87,825.9 308.12,827.79 -1.8616,630.54 0.00842,431.37 -1.8616,232.24 308.12,35 698.87,36.86 1089.6,38.751 1288.8,222.84 1288.8,222.84 1317,254.8 1270,234.13 1270,234.13 1200.5,189.03 995.29,100.23 678.21,130.78 366.36,160.87 264.57,266.81 230.74,338.2 217.72,365.67 211.86,391.58 210.36,417.68 218.79,349.58 261.12,269.26 370.47,269.26 494.34,269.26 532.24,372.31 532.24,443.94 532.24,515.59 494.34,618.65 370.47,618.65 z M 1629.5,549.79 1794.5,549.79 1794.5,609.88 1560.2,609.88 1560.2,278.03 1629.5,278.03 1629.5,549.79 z M 1375,430.99 1513.6,430.99 1513.6,609.88 1467.4,609.88 1460.5,568.27 C 1442.9,588.59 1417.5,618.65 1356.9,618.65 1277,618.65 1204.4,561.34 1204.4,444.87 1204.4,354.29 1254.8,268.8 1366.6,269.26 1468.3,269.26 1508.5,335.35 1512.2,381.09 L 1442.9,381.09 C 1442.9,368.14 1419.3,326.57 1370.3,326.57 1320.9,326.57 1275.2,360.77 1275.2,445.81 1275.2,536.38 1324.6,559.93 1371.7,559.93 1387,559.93 1437.8,553.93 1452.1,486.95 L 1375,486.95 1375,430.99 z M 370.47,309 C 298.38,309 254.94,365.84 254.94,443.94 254.94,522.04 298.38,578.89 370.47,578.89 442.56,578.89 486,522.04 486,443.94 486,365.84 442.56,309 370.47,309 z M 557.11,397.65 590.78,397.65 590.78,427.67 591.6,427.67 C 600.1,415.52 616.34,391.58 654.88,391.58 711.29,391.58 751.49,439.36 751.49,499.01 751.49,549.73 722.26,615.94 650.02,615.94 621.62,615.94 602.96,602.56 593.64,587.55 L 592.82,587.55 592.82,693.86 557.11,693.86 557.11,397.65 z M 647.33,585.13 C 686.28,585.13 712.7,551.37 712.7,504.7 712.7,477.52 701.7,423.62 646.51,423.62 595.01,423.62 589.32,479.21 589.32,513.7 589.32,570.11 624.59,585.13 647.33,585.13 z M 967.54,543.32 C 966.35,553.47 956.61,583.5 929.82,601.34 920.09,607.84 906.29,615.94 872.21,615.94 812.57,615.94 777.26,570.9 777.26,509.65 777.26,443.91 808.93,391.58 879.09,391.58 940.38,391.58 970.4,440.27 970.4,515.34 L 815.39,515.34 C 815.39,559.56 836.09,585.13 877.08,585.13 910.75,585.13 930.63,559.15 931.86,543.32 L 967.54,543.32 z M 929.7,486.91 C 927.69,454.06 913.9,423.62 870.49,423.62 837.61,423.62 811.63,454.06 811.63,486.91 L 929.7,486.91 z M 1167.7,609.88 1132,609.88 1132,479.21 C 1132,442.28 1121.5,423.62 1086.6,423.62 1066.3,423.62 1030.6,436.63 1030.6,494.23 L 1030.6,609.88 994.89,609.88 994.89,397.65 1028.6,397.65 1028.6,427.67 1029.4,427.67 C 1037.1,416.34 1056.9,391.58 1093.5,391.58 1126.3,391.58 1167.7,404.96 1167.7,465.42 L 1167.7,609.88 z" fill="#4c4c4c" />
<path d="M 370.47,581.81 C 279.78,581.81 235.2,526.56 217.8,468.87 237.45,562.53 343.53,654.22 678.21,695.12 994.42,733.77 1200.5,636.9 1270,591.81 1270,591.81 1317,571.14 1288.8,603.09 1288.8,603.09 1089.6,787.18 698.87,789.05 308.12,790.94 -1.8616,593.7 0.00842,394.52 -1.8616,195.39 308.12,-1.8477 698.87,0.01306 1089.6,1.9037 1288.8,186 1288.8,186 1317,217.95 1270,197.28 1270,197.28 1200.5,152.19 995.29,63.389 678.21,93.934 366.36,124.02 264.57,229.96 230.74,301.36 217.72,328.82 211.86,354.73 210.36,380.83 218.79,312.73 261.12,232.42 370.47,232.42 494.34,232.42 532.24,335.47 532.24,407.09 532.24,478.75 494.34,581.81 370.47,581.81 z M 1629.5,512.95 1794.5,512.95 1794.5,573.03 1560.2,573.03 1560.2,241.18 1629.5,241.18 1629.5,512.95 z M 1375,394.15 1513.6,394.15 1513.6,573.03 1467.4,573.03 1460.5,531.43 C 1442.9,551.75 1417.5,581.81 1356.9,581.81 1277,581.81 1204.4,524.49 1204.4,408.03 1204.4,317.45 1254.8,231.95 1366.6,232.42 1468.3,232.42 1508.5,298.5 1512.2,344.24 L 1442.9,344.24 C 1442.9,331.3 1419.3,289.72 1370.3,289.72 1320.9,289.72 1275.2,323.92 1275.2,408.96 1275.2,499.53 1324.6,523.09 1371.7,523.09 1387,523.09 1437.8,517.09 1452.1,450.1 L 1375,450.1 1375,394.15 z M 370.47,272.15 C 298.38,272.15 254.94,328.99 254.94,407.09 254.94,485.2 298.38,542.04 370.47,542.04 442.56,542.04 486,485.2 486,407.09 486,328.99 442.56,272.15 370.47,272.15 z M 557.11,360.8 590.78,360.8 590.78,390.82 591.6,390.82 C 600.1,378.67 616.34,354.73 654.88,354.73 711.29,354.73 751.49,402.51 751.49,462.16 751.49,512.89 722.26,579.09 650.02,579.09 621.62,579.09 602.96,565.72 593.64,550.7 L 592.82,550.7 592.82,657.01 557.11,657.01 557.11,360.8 z M 647.33,548.28 C 686.28,548.28 712.7,514.52 712.7,467.85 712.7,440.68 701.7,386.77 646.51,386.77 595.01,386.77 589.32,442.37 589.32,476.86 589.32,533.27 624.59,548.28 647.33,548.28 z M 967.54,506.47 C 966.35,516.62 956.61,546.65 929.82,564.49 920.09,570.99 906.29,579.09 872.21,579.09 812.57,579.09 777.26,534.05 777.26,472.81 777.26,407.06 808.93,354.73 879.09,354.73 940.38,354.73 970.4,403.42 970.4,478.49 L 815.39,478.49 C 815.39,522.71 836.09,548.28 877.08,548.28 910.75,548.28 930.63,522.3 931.86,506.47 L 967.54,506.47 z M 929.7,450.06 C 927.69,417.21 913.9,386.77 870.49,386.77 837.61,386.77 811.63,417.21 811.63,450.06 L 929.7,450.06 z M 1167.7,573.03 1132,573.03 1132,442.37 C 1132,405.43 1121.5,386.77 1086.6,386.77 1066.3,386.77 1030.6,399.78 1030.6,457.38 L 1030.6,573.03 994.89,573.03 994.89,360.8 1028.6,360.8 1028.6,390.82 1029.4,390.82 C 1037.1,379.49 1056.9,354.73 1093.5,354.73 1126.3,354.73 1167.7,368.12 1167.7,428.58 L 1167.7,573.03 z" fill="#1496c4" />
</svg>